<svg xmlns="http://www.w3.org/2000/svg" viewBox="310 738 1884 1022" width="856.4" height="464.5"><g class="ink" fill="var(--ink, #222222)"><path d="M0 0 C1.04 -0 2.08 -0.01 3.14 -0.01 C3.71 -0.01 3.71 -0.01 6.57 -0 C7.72 -0 8.87 -0.01 10.05 -0.01 C12.49 -0.01 14.93 -0.01 17.37 -0 C21.11 0 24.86 -0 28.61 -0.01 C30.97 -0.01 33.33 -0.01 35.69 -0 C36.82 -0.01 37.95 -0.01 39.11 -0.01 C39.63 -0.01 39.63 -0.01 42.26 0 C43.18 0 44.09 0 45.04 0 C47.13 0.13 47.13 0.13 48.13 1.13 C49.47 1.25 50.82 1.3 52.17 1.32 C53.03 1.34 53.89 1.35 54.77 1.37 C55.24 1.38 55.24 1.38 57.6 1.41 C58.07 1.42 58.07 1.42 60.48 1.47 C63.53 1.53 66.58 1.58 69.63 1.63 C73.64 1.7 77.65 1.77 81.66 1.85 C82.13 1.85 82.13 1.85 84.49 1.89 C85.34 1.91 86.2 1.92 87.08 1.94 C87.46 1.95 87.46 1.95 89.38 1.98 C91.13 2.13 91.13 2.13 92.13 3.13 C93.68 3.27 95.23 3.36 96.79 3.41 C97.72 3.45 98.66 3.49 99.63 3.52 C100.62 3.56 101.61 3.59 102.63 3.63 C104.58 3.7 106.52 3.77 108.47 3.85 C109.34 3.88 110.21 3.91 111.1 3.94 C113.13 4.13 113.13 4.13 114.13 5.13 C116.97 5.34 119.79 5.51 122.63 5.63 C130.99 5.99 130.99 5.99 132.13 7.13 C134.63 7.34 137.12 7.51 139.63 7.63 C146.99 7.99 146.99 7.99 148.13 9.13 C150.29 9.34 152.46 9.5 154.63 9.63 C161.02 10.02 161.02 10.02 162.13 11.13 C163.96 11.34 165.79 11.5 167.63 11.63 C173.02 12.02 173.02 12.02 174.13 13.13 C175.62 13.34 177.13 13.5 178.63 13.63 C183.02 14.02 183.02 14.02 184.13 15.13 C185.62 15.34 187.13 15.5 188.63 15.63 C193.02 16.02 193.02 16.02 194.13 17.13 C195.62 17.34 197.13 17.5 198.63 17.63 C203.02 18.02 203.02 18.02 204.13 19.13 C205.62 19.34 207.13 19.5 208.63 19.63 C213.02 20.02 213.02 20.02 214.13 21.13 C214.71 21.21 214.71 21.21 217.63 21.63 C221.13 22.13 221.13 22.13 222.13 23.13 C222.71 23.21 222.71 23.21 225.63 23.63 C229.13 24.13 229.13 24.13 230.13 25.13 C230.71 25.21 230.71 25.21 233.63 25.63 C237.13 26.13 237.13 26.13 238.13 27.13 C238.64 27.19 238.64 27.19 241.25 27.5 C245.3 28.16 248.38 29.52 252.13 31.13 C252.71 31.21 252.71 31.21 255.63 31.63 C258.84 32.09 261.19 32.95 264.11 34.31 C266.58 35.31 269.06 35.96 271.63 36.63 C276.01 37.77 279.96 39.34 284.13 41.13 C285.89 41.63 287.67 42.11 289.44 42.57 C294.88 43.99 299.95 45.95 305.13 48.13 C306.79 48.8 308.46 49.47 310.13 50.13 C320.13 54.13 320.13 54.13 322.62 55.13 C324.3 55.8 325.98 56.45 327.66 57.09 C332.6 58.99 337.12 61.12 341.63 63.88 C343.89 65.01 345.99 65.76 348.39 66.51 C353.04 68.01 357.17 70.08 361.44 72.44 C362.92 73.25 364.4 74.05 365.89 74.85 C366.61 75.24 367.32 75.63 368.06 76.03 C370.95 77.57 373.88 79.01 376.82 80.44 C380.81 82.42 384.44 84.62 388.13 87.13 C389.45 87.81 390.79 88.48 392.13 89.13 C395.68 90.85 398.87 92.89 402.13 95.13 C404.44 96.56 406.76 97.93 409.16 99.22 C413.87 101.75 418.13 104.51 422.36 107.79 C424.51 109.42 426.79 110.77 429.13 112.13 C432.47 114.27 435.34 116.34 438.13 119.13 C438.54 119.38 438.54 119.38 440.63 120.63 C442.89 121.99 444.29 123.29 446.13 125.13 C446.54 125.38 446.54 125.38 448.63 126.63 C450.89 127.99 452.29 129.29 454.13 131.13 C454.52 131.36 454.52 131.36 456.5 132.5 C459.51 134.36 461.64 136.64 464.13 139.13 C464.52 139.36 464.52 139.36 466.5 140.5 C470.21 142.8 472.87 145.83 475.85 148.97 C478.13 151.13 478.13 151.13 480.26 152.26 C484.49 155.01 487.83 158.55 491.39 162.12 C492.17 162.9 492.96 163.69 493.77 164.49 C495.42 166.15 497.07 167.8 498.72 169.46 C501.24 172 503.78 174.52 506.31 177.04 C507.92 178.65 509.53 180.26 511.14 181.87 C511.89 182.62 512.65 183.38 513.43 184.15 C516.87 187.62 519.81 190.78 522.13 195.13 C523.59 196.67 525.09 198.17 526.63 199.63 C529.78 202.61 531.96 205.39 534.13 209.13 C534.56 209.56 534.56 209.56 536.75 211.75 C539.13 214.13 539.13 214.13 540.13 217.13 C542.13 217.17 544.13 217.17 546.13 217.13 C546.46 216.8 546.79 216.47 547.13 216.13 C550.34 215.86 553.54 215.68 556.76 215.52 C562.03 215.23 562.03 215.23 563.13 214.13 C564.61 214.03 566.09 214 567.57 214 C568.46 214 569.36 213.99 570.28 213.99 C571.22 214 572.16 214 573.13 214 C574.07 214 575.01 214 575.98 213.99 C576.43 213.99 576.43 213.99 578.69 214 C579.52 214 580.34 214 581.2 214 C583.13 214.13 583.13 214.13 584.13 215.13 C586.29 215.34 588.46 215.5 590.63 215.63 C597.02 216.02 597.02 216.02 598.13 217.13 C599.16 217.25 600.19 217.38 601.25 217.5 C605.33 218.16 608.37 219.44 612.13 221.13 C613.5 221.56 614.88 221.97 616.25 222.38 C627.62 226.09 637.73 232.73 646.13 241.13 C646.87 241.54 647.61 241.95 648.38 242.38 C654.16 246.06 658.86 251.12 662.13 257.13 C662.62 257.62 663.12 258.12 663.63 258.63 C671.33 266.33 677.43 280.78 679.69 291.22 C680.13 293.13 680.13 293.13 681.13 294.13 C681.45 296.45 681.64 298.77 681.85 301.1 C682.13 303.13 682.13 303.13 683.13 304.13 C683.23 306.78 683.27 309.41 683.26 312.07 C683.26 312.86 683.26 313.66 683.26 314.48 C683.27 316.16 683.26 317.85 683.26 319.53 C683.25 322.12 683.26 324.71 683.27 327.29 C683.26 328.93 683.26 330.56 683.26 332.19 C683.26 332.58 683.26 332.58 683.27 334.55 C683.24 340.01 683.24 340.01 682.13 341.13 C682.05 341.71 682.05 341.71 681.63 344.63 C681.13 348.13 681.13 348.13 680.13 349.13 C680.01 350.2 679.88 351.27 679.75 352.38 C679.12 356.21 678.13 357.89 676.13 361.13 C675.62 362.6 675.15 364.08 674.69 365.57 C673.41 369.61 671.65 372.68 669.13 376.13 C668.47 377.12 667.81 378.11 667.13 379.13 C666.47 380.12 665.81 381.11 665.13 382.13 C664.45 383.18 663.77 384.23 663.07 385.32 C661.51 387.58 660.04 389.22 658.13 391.13 C657.91 391.51 657.91 391.51 656.82 393.44 C653.52 398.7 649.43 402 644.13 405.13 C643.72 405.54 643.72 405.54 641.63 407.63 C639.22 410.04 637.08 411.47 634.13 413.13 C632.12 414.45 630.12 415.79 628.13 417.13 C628.44 419.11 628.75 421.09 629.07 423.07 C629.15 423.62 629.15 423.62 629.59 426.41 C630.13 429.13 630.13 429.13 631.13 430.13 C631.45 432.45 631.64 434.77 631.85 437.1 C632.13 439.13 632.13 439.13 633.13 440.13 C633.45 442.97 633.64 445.81 633.85 448.66 C634.13 451.13 634.13 451.13 635.13 452.13 C635.27 453.97 635.36 455.82 635.41 457.66 C635.43 458.22 635.43 458.22 635.52 461.06 C635.59 463.44 635.66 465.82 635.73 468.2 C635.75 468.76 635.75 468.76 635.85 471.6 C635.88 472.63 635.91 473.67 635.94 474.74 C636.13 477.13 636.13 477.13 637.13 478.13 C637.23 480.19 637.26 482.25 637.26 484.32 C637.26 485.57 637.26 486.83 637.27 488.12 C637.26 488.45 637.26 488.45 637.26 490.11 C637.25 492.12 637.26 494.13 637.27 496.14 C637.26 497.39 637.26 498.65 637.26 499.94 C637.26 500.52 637.26 500.52 637.26 503.46 C637.13 506.13 637.13 506.13 636.13 507.13 C635.98 508.82 635.9 510.52 635.85 512.22 C635.83 512.74 635.83 512.74 635.73 515.34 C635.7 516.43 635.66 517.51 635.63 518.63 C635.56 520.76 635.49 522.9 635.41 525.04 C635.38 525.99 635.35 526.94 635.32 527.92 C635.13 530.13 635.13 530.13 634.13 531.13 C633.92 533.29 633.76 535.46 633.63 537.63 C633.24 544.02 633.24 544.02 632.13 545.13 C631.92 546.62 631.76 548.13 631.63 549.63 C631.24 554.02 631.24 554.02 630.13 555.13 C629.96 556.28 629.8 557.44 629.63 558.63 C629.13 562.13 629.13 562.13 628.13 563.13 C627.96 564.28 627.8 565.44 627.63 566.63 C627.13 570.13 627.13 570.13 626.13 571.13 C626.01 572.16 625.88 573.19 625.75 574.25 C625.21 577.61 624.36 580.07 622.95 583.13 C621.97 585.52 621.34 587.93 620.69 590.44 C618.55 598.54 615.47 605.68 611.28 612.91 C610.13 615.13 609.36 617.25 608.63 619.63 C606.75 625.71 603.6 630.94 600.07 636.19 C598.14 639.11 596.65 642.05 595.13 645.18 C593.69 647.99 591.92 650.53 590.13 653.13 C589.61 654.02 589.1 654.9 588.57 655.82 C587.24 657.96 585.89 659.37 584.13 661.13 C583.1 662.78 582.11 664.45 581.13 666.13 C578.5 670.33 575.73 673.73 572.13 677.13 C573.57 680.44 575.35 682.56 577.94 685.06 C578.31 685.43 578.31 685.43 580.2 687.28 C581.77 688.8 583.35 690.32 584.92 691.84 C585.67 692.58 586.42 693.31 587.19 694.06 C587.87 694.72 588.56 695.38 589.26 696.06 C591.26 698.27 592.65 700.56 594.13 703.13 C594.62 703.62 595.12 704.12 595.63 704.63 C603.27 712.27 609.27 726.49 611.58 736.84 C612.1 739.02 612.81 740.85 613.75 742.88 C615.22 746.33 615.75 749.41 616.13 753.13 C619.83 754.5 621.58 753.62 625.13 752.13 C627.46 751.78 629.79 751.44 632.13 751.13 C632.46 750.8 632.79 750.47 633.13 750.13 C635.45 749.81 637.77 749.62 640.1 749.41 C642.13 749.13 642.13 749.13 643.13 748.13 C645.45 747.81 647.77 747.62 650.1 747.41 C652.13 747.13 652.13 747.13 653.13 746.13 C655.97 745.81 658.81 745.62 661.66 745.41 C664.13 745.13 664.13 745.13 665.13 744.13 C668.34 743.86 671.54 743.68 674.76 743.52 C680.03 743.23 680.03 743.23 681.13 742.13 C683.06 742.03 684.99 742 686.92 742 C687.54 742 687.54 742 690.67 741.99 C692.03 741.99 693.39 741.99 694.75 742 C696.14 742 697.53 741.99 698.91 741.99 C701.82 741.99 704.73 741.99 707.64 742 C711.37 742 715.11 742 718.85 742 C721.71 741.99 724.57 741.99 727.44 742 C728.82 742 730.19 742 731.57 741.99 C733.49 741.99 735.42 742 737.34 742 C737.89 742 737.89 742 740.66 742 C743.13 742.13 743.13 742.13 744.13 743.13 C746.97 743.34 749.79 743.51 752.63 743.63 C760.99 743.99 760.99 743.99 762.13 745.13 C763.96 745.34 765.79 745.5 767.63 745.63 C773.02 746.02 773.02 746.02 774.13 747.13 C775.62 747.34 777.13 747.5 778.63 747.63 C783.02 748.02 783.02 748.02 784.13 749.13 C785.28 749.29 786.44 749.46 787.63 749.63 C791.13 750.13 791.13 750.13 792.13 751.13 C793.28 751.29 794.44 751.46 795.63 751.63 C799.13 752.13 799.13 752.13 800.13 753.13 C801.16 753.25 802.19 753.38 803.25 753.5 C806.61 754.05 809.06 754.89 812.11 756.31 C814.58 757.31 817.06 757.96 819.63 758.63 C824.01 759.78 827.98 761.29 832.13 763.13 C833.67 763.64 835.21 764.14 836.75 764.63 C840.23 765.75 842.99 767.25 846.13 769.13 C847.46 769.57 848.79 769.98 850.13 770.38 C859.44 773.37 869.2 778.1 875.13 786.13 C877.68 791.12 877.91 796.64 877.13 802.13 C875.2 807.79 872.02 812.47 866.66 815.3 C859.15 817.76 851.8 817.59 844.7 814.21 C841.8 812.71 839 811.07 836.2 809.39 C832.03 806.93 827.73 805.55 823.13 804.13 C821.41 803.48 819.7 802.82 818 802.13 C817.17 801.79 816.34 801.45 815.48 801.11 C813.44 800.26 811.41 799.39 809.38 798.5 C803.93 796.2 798.99 794.93 793.13 794.13 C792.8 793.8 792.47 793.47 792.13 793.13 C790.97 792.96 789.82 792.8 788.63 792.63 C785.13 792.13 785.13 792.13 784.13 791.13 C782.97 790.96 781.82 790.8 780.63 790.63 C777.13 790.13 777.13 790.13 776.13 789.13 C774.63 788.92 773.13 788.76 771.63 788.63 C767.24 788.24 767.24 788.24 766.13 787.13 C764.3 786.92 762.47 786.76 760.63 786.63 C755.24 786.24 755.24 786.24 754.13 785.13 C751.29 784.92 748.47 784.75 745.63 784.63 C737.26 784.26 737.26 784.26 736.13 783.13 C734.69 783.03 733.25 783 731.81 783 C730.89 783 729.97 782.99 729.03 782.99 C728.03 782.99 727.03 782.99 726 783 C724.99 783 723.97 782.99 722.92 782.99 C720.77 782.99 718.61 782.99 716.46 783 C713.14 783 709.83 783 706.52 782.99 C704.43 782.99 702.34 782.99 700.25 783 C699.26 782.99 698.26 782.99 697.23 782.99 C696.77 782.99 696.77 782.99 694.45 783 C693.64 783 692.83 783 691.99 783 C690.13 783.13 690.13 783.13 689.13 784.13 C685.49 784.4 681.86 784.58 678.21 784.73 C672.23 785.03 672.23 785.03 671.13 786.13 C668.29 786.45 665.45 786.64 662.6 786.85 C660.13 787.13 660.13 787.13 659.13 788.13 C656.81 788.45 654.49 788.64 652.16 788.85 C650.13 789.13 650.13 789.13 649.13 790.13 C646.8 790.46 644.46 790.8 642.13 791.13 C641.8 791.46 641.47 791.79 641.13 792.13 C638.8 792.46 636.46 792.8 634.13 793.13 C633.8 793.46 633.47 793.79 633.13 794.13 C632.61 794.19 632.61 794.19 630 794.5 C626.64 795.05 624.19 795.9 621.13 797.31 C618.73 798.29 616.32 798.92 613.82 799.57 C607.12 801.32 600.9 803.92 594.57 806.69 C591.88 807.82 589.27 808.75 586.5 809.63 C583.94 810.46 581.96 811.23 579.63 812.63 C577.31 814.02 575.44 814.72 572.88 815.5 C569.53 816.56 566.66 817.86 563.63 819.63 C559.89 821.81 556.24 823.19 552.11 824.45 C550.13 825.13 550.13 825.13 547.75 826.63 C545.07 828.16 542.87 828.77 539.88 829.5 C536.08 830.47 532.99 831.61 529.63 833.63 C525.47 836.12 521.39 837.29 516.7 838.45 C513.31 839.35 510.32 840.69 507.13 842.13 C502.8 843.75 498.7 844.5 494.13 845.13 C493.8 845.46 493.47 845.79 493.13 846.13 C492.61 846.19 492.61 846.19 490 846.5 C486.13 847.13 486.13 847.13 482.63 848.63 C479.06 850.16 475.96 850.67 472.13 851.13 C471.8 851.46 471.47 851.79 471.13 852.13 C468.81 852.45 466.49 852.64 464.16 852.85 C462.13 853.13 462.13 853.13 461.13 854.13 C458.29 854.45 455.45 854.64 452.6 854.85 C450.13 855.13 450.13 855.13 449.13 856.13 C446.81 856.45 444.49 856.64 442.16 856.85 C440.13 857.13 440.13 857.13 439.13 858.13 C435.77 858.45 432.41 858.64 429.04 858.85 C426.13 859.13 426.13 859.13 425.13 860.13 C423.73 860.27 422.32 860.36 420.91 860.41 C420.06 860.45 419.21 860.49 418.34 860.52 C417.43 860.56 417.43 860.56 412.92 860.73 C412.07 860.77 411.22 860.81 410.35 860.85 C409.56 860.88 408.78 860.91 407.97 860.94 C406.13 861.13 406.13 861.13 405.13 862.13 C402.55 862.28 399.99 862.36 397.41 862.41 C396.64 862.43 395.86 862.45 395.07 862.47 C391.75 862.55 388.42 862.61 385.1 862.68 C382.68 862.73 380.27 862.79 377.85 862.85 C377.09 862.86 376.33 862.88 375.55 862.89 C370.24 863.02 370.24 863.02 369.13 864.13 C366.33 864.23 363.55 864.27 360.75 864.26 C359.91 864.26 359.07 864.26 358.21 864.27 C356.43 864.27 354.65 864.26 352.87 864.26 C350.14 864.25 347.41 864.26 344.68 864.27 C342.95 864.27 341.23 864.26 339.5 864.26 C338.68 864.26 337.86 864.27 337.01 864.27 C331.24 864.24 331.24 864.24 330.13 863.13 C327.85 862.98 325.57 862.9 323.29 862.85 C322.6 862.83 321.92 862.81 321.21 862.79 C319.02 862.73 316.82 862.68 314.63 862.63 C311.74 862.56 308.86 862.49 305.97 862.41 C305.33 862.4 305.33 862.4 302.07 862.32 C299.13 862.13 299.13 862.13 298.13 861.13 C296.73 860.99 295.32 860.9 293.91 860.85 C293.06 860.81 292.21 860.77 291.34 860.73 C290.89 860.72 290.89 860.72 288.63 860.63 C286.87 860.56 285.11 860.49 283.35 860.41 C282.96 860.4 282.96 860.4 280.97 860.32 C279.13 860.13 279.13 860.13 278.13 859.13 C275.97 858.92 273.8 858.76 271.63 858.63 C265.24 858.24 265.24 858.24 264.13 857.13 C261.97 856.92 259.8 856.76 257.63 856.63 C251.24 856.24 251.24 856.24 250.13 855.13 C248.63 854.92 247.13 854.76 245.63 854.63 C241.24 854.24 241.24 854.24 240.13 853.13 C238.63 852.92 237.13 852.76 235.63 852.63 C231.24 852.24 231.24 852.24 230.13 851.13 C228.97 850.96 227.82 850.8 226.63 850.63 C223.13 850.13 223.13 850.13 222.13 849.13 C220.97 848.96 219.82 848.8 218.63 848.63 C215.13 848.13 215.13 848.13 214.13 847.13 C212.97 846.96 211.82 846.8 210.63 846.63 C207.13 846.13 207.13 846.13 206.13 845.13 C205.1 845.01 204.07 844.88 203 844.75 C198.96 844.1 195.88 842.74 192.13 841.13 C190.97 840.96 189.82 840.8 188.63 840.63 C185.42 840.17 183.07 839.3 180.14 837.95 C177.68 836.95 175.2 836.3 172.63 835.63 C168.25 834.48 164.27 832.97 160.13 831.13 C158.63 830.61 157.13 830.12 155.63 829.63 C152.9 828.75 150.39 827.8 147.75 826.63 C144.74 825.38 141.96 824.51 138.82 823.69 C132.16 821.95 125.95 819.41 119.69 816.57 C115.77 814.99 111.85 813.95 107.77 812.88 C104.38 811.92 101.34 810.58 98.13 809.13 C93.8 807.5 89.7 806.76 85.13 806.13 C84.8 805.8 84.47 805.47 84.13 805.13 C83.1 805.01 82.07 804.88 81 804.75 C77.13 804.13 77.13 804.13 73.75 802.63 C70 801.07 66.96 800.63 62.95 800.34 C61.13 800.13 61.13 800.13 60.13 799.13 C58.97 798.96 57.82 798.8 56.63 798.63 C53.13 798.13 53.13 798.13 52.13 797.13 C50.3 796.92 48.47 796.76 46.63 796.63 C41.24 796.24 41.24 796.24 40.13 795.13 C38.3 794.92 36.47 794.76 34.63 794.63 C29.24 794.24 29.24 794.24 28.13 793.13 C25.29 792.92 22.47 792.75 19.63 792.63 C11.26 792.26 11.26 792.26 10.13 791.13 C7.96 791.03 5.78 791 3.61 791 C2.92 791 2.24 791 1.54 790.99 C-0.72 790.99 -2.98 790.99 -5.25 791 C-6.81 791 -8.38 790.99 -9.94 790.99 C-13.23 790.99 -16.51 790.99 -19.8 791 C-24.02 791 -28.24 791 -32.46 791 C-35.69 790.99 -38.93 790.99 -42.16 791 C-43.72 791 -45.28 791 -46.83 790.99 C-49 790.99 -51.18 790.99 -53.35 791 C-54.59 791 -55.82 791 -57.1 791 C-59.87 791.13 -59.87 791.13 -60.87 792.13 C-64.51 792.4 -68.14 792.58 -71.79 792.73 C-77.77 793.03 -77.77 793.03 -78.87 794.13 C-81.71 794.45 -84.55 794.64 -87.4 794.85 C-89.87 795.13 -89.87 795.13 -90.87 796.13 C-93.71 796.45 -96.55 796.64 -99.4 796.85 C-101.87 797.13 -101.87 797.13 -102.87 798.13 C-105.19 798.45 -107.51 798.64 -109.84 798.85 C-111.87 799.13 -111.87 799.13 -112.87 800.13 C-115.2 800.46 -117.54 800.8 -119.87 801.13 C-120.2 801.46 -120.53 801.79 -120.87 802.13 C-123.2 802.46 -125.54 802.8 -127.87 803.13 C-128.2 803.46 -128.53 803.79 -128.87 804.13 C-129.39 804.19 -129.39 804.19 -132 804.5 C-135.87 805.13 -135.87 805.13 -139.37 806.63 C-142.97 808.17 -146.02 808.58 -149.87 809.13 C-151.54 809.84 -153.22 810.55 -154.87 811.31 C-157.27 812.29 -159.68 812.92 -162.18 813.57 C-168.84 815.31 -175.05 817.85 -181.31 820.69 C-184.39 821.93 -187.29 822.8 -190.5 823.63 C-193.48 824.41 -195.72 825.04 -198.37 826.63 C-201.78 828.68 -205.34 829.4 -209.18 830.38 C-211.87 831.13 -211.87 831.13 -215.37 832.63 C-218.4 833.93 -221.19 834.8 -224.37 835.63 C-228.79 836.78 -232.72 838.26 -236.87 840.13 C-240.1 841.34 -242.89 842.13 -246.31 842.57 C-249.87 843.13 -249.87 843.13 -253.37 844.63 C-256.94 846.16 -260.04 846.67 -263.87 847.13 C-264.2 847.46 -264.53 847.79 -264.87 848.13 C-267.2 848.46 -269.54 848.8 -271.87 849.13 C-272.2 849.46 -272.53 849.79 -272.87 850.13 C-275.2 850.46 -277.54 850.8 -279.87 851.13 C-280.2 851.46 -280.53 851.79 -280.87 852.13 C-283.19 852.45 -285.51 852.64 -287.84 852.85 C-289.87 853.13 -289.87 853.13 -290.87 854.13 C-293.71 854.45 -296.55 854.64 -299.4 854.85 C-301.87 855.13 -301.87 855.13 -302.87 856.13 C-305.71 856.45 -308.55 856.64 -311.4 856.85 C-313.87 857.13 -313.87 857.13 -314.87 858.13 C-318.08 858.4 -321.28 858.58 -324.5 858.73 C-329.77 859.03 -329.77 859.03 -330.87 860.13 C-332.57 860.27 -334.27 860.36 -335.96 860.41 C-336.99 860.45 -338.02 860.49 -339.09 860.52 C-341.28 860.59 -343.47 860.66 -345.66 860.73 C-346.69 860.77 -347.72 860.81 -348.78 860.85 C-349.73 860.88 -350.68 860.91 -351.66 860.94 C-353.87 861.13 -353.87 861.13 -354.87 862.13 C-357.67 862.23 -360.45 862.27 -363.25 862.26 C-364.09 862.26 -364.93 862.26 -365.79 862.27 C-367.57 862.27 -369.35 862.26 -371.13 862.26 C-373.86 862.25 -376.59 862.26 -379.32 862.27 C-381.05 862.27 -382.77 862.26 -384.5 862.26 C-385.32 862.26 -386.14 862.27 -386.99 862.27 C-392.76 862.24 -392.76 862.24 -393.87 861.13 C-395.57 860.98 -397.27 860.9 -398.96 860.85 C-399.48 860.83 -399.48 860.83 -402.09 860.73 C-402.63 860.72 -402.63 860.72 -405.37 860.63 C-407.51 860.56 -409.64 860.49 -411.78 860.41 C-412.25 860.4 -412.25 860.4 -414.66 860.32 C-416.87 860.13 -416.87 860.13 -417.87 859.13 C-420.03 858.92 -422.2 858.76 -424.37 858.63 C-430.76 858.24 -430.76 858.24 -431.87 857.13 C-433.37 856.92 -434.87 856.76 -436.37 856.63 C-440.76 856.24 -440.76 856.24 -441.87 855.13 C-443.37 854.92 -444.87 854.76 -446.37 854.63 C-450.76 854.24 -450.76 854.24 -451.87 853.13 C-453.24 852.97 -454.62 852.85 -456 852.75 C-460.42 852.32 -463.8 850.94 -467.87 849.13 C-469.03 848.96 -470.18 848.8 -471.37 848.63 C-474.59 848.17 -476.94 847.3 -479.87 845.95 C-482.27 844.97 -484.68 844.34 -487.18 843.69 C-492.62 842.26 -497.69 840.3 -502.87 838.13 C-504.54 837.46 -506.2 836.79 -507.87 836.13 C-508.29 835.96 -508.29 835.96 -510.38 835.12 C-512 834.47 -513.63 833.85 -515.27 833.23 C-521.33 830.93 -526.87 828.03 -532.5 824.81 C-535.15 823.49 -537.46 822.56 -540.26 821.69 C-544.88 820.22 -548.91 818.12 -553.12 815.75 C-559.35 812.35 -565.48 809.53 -572.15 807.11 C-574.3 806.34 -576.41 805.44 -578.5 804.5 C-582.35 802.93 -586.23 801.93 -590.25 800.88 C-593.59 799.92 -596.68 798.5 -599.87 797.13 C-602.77 796.29 -605.68 795.52 -608.61 794.78 C-610.87 794.13 -610.87 794.13 -611.87 793.13 C-613.03 792.96 -614.18 792.8 -615.37 792.63 C-618.87 792.13 -618.87 792.13 -619.87 791.13 C-621.37 790.92 -622.87 790.76 -624.37 790.63 C-628.76 790.24 -628.76 790.24 -629.87 789.13 C-631.37 788.92 -632.87 788.76 -634.37 788.63 C-638.76 788.24 -638.76 788.24 -639.87 787.13 C-642.03 786.92 -644.2 786.76 -646.37 786.63 C-652.76 786.24 -652.76 786.24 -653.87 785.13 C-655.86 784.98 -657.85 784.9 -659.84 784.85 C-660.45 784.83 -660.45 784.83 -663.51 784.73 C-664.15 784.72 -664.15 784.72 -667.37 784.63 C-669.88 784.56 -672.39 784.49 -674.9 784.41 C-675.46 784.4 -675.46 784.4 -678.29 784.32 C-680.87 784.13 -680.87 784.13 -681.87 783.13 C-683.54 783.03 -685.2 783 -686.87 783 C-687.32 783 -687.32 783 -689.62 783 C-691.87 783.13 -691.87 783.13 -692.87 784.13 C-694.86 784.28 -696.85 784.36 -698.84 784.41 C-700.05 784.45 -701.26 784.49 -702.51 784.52 C-703.8 784.56 -703.8 784.56 -710.23 784.73 C-711.44 784.77 -712.66 784.81 -713.9 784.85 C-714.46 784.86 -714.46 784.86 -717.29 784.94 C-719.87 785.13 -719.87 785.13 -720.87 786.13 C-724.23 786.45 -727.59 786.64 -730.96 786.85 C-733.87 787.13 -733.87 787.13 -734.87 788.13 C-737.19 788.45 -739.51 788.64 -741.84 788.85 C-743.87 789.13 -743.87 789.13 -744.87 790.13 C-747.19 790.45 -749.51 790.64 -751.84 790.85 C-753.87 791.13 -753.87 791.13 -754.87 792.13 C-755.39 792.19 -755.39 792.19 -758 792.5 C-762.06 793.16 -765.14 794.43 -768.87 796.13 C-772.15 797.36 -774.95 798.14 -778.43 798.57 C-781.87 799.13 -781.87 799.13 -784.12 800.5 C-786.88 802.14 -789.03 802.75 -792.12 803.5 C-796.83 804.7 -800.53 806.45 -804.68 808.93 C-807.58 810.52 -810.56 811.45 -813.73 812.36 C-815.87 813.13 -815.87 813.13 -818.18 814.68 C-823.54 817.56 -829.97 816.81 -835.87 816.13 C-840.68 814.22 -844.06 810.4 -846.87 806.13 C-850 798.77 -848.97 793.7 -846.14 786.5 C-843.17 780.95 -838.63 778.7 -833.18 776.07 C-832.47 775.71 -831.76 775.36 -831.02 775 C-826.07 772.6 -821.13 770.77 -815.87 769.13 C-815.46 768.88 -815.46 768.88 -813.37 767.63 C-810.4 765.85 -807.43 764.93 -804.14 763.88 C-802.1 763.2 -800.15 762.44 -798.18 761.57 C-793.92 759.72 -790.05 758.28 -785.43 757.69 C-781.51 757.07 -778.48 755.77 -774.87 754.13 C-770.47 752.41 -766.4 751.76 -761.73 751.38 C-759.87 751.13 -759.87 751.13 -758.87 750.13 C-756.54 749.8 -754.2 749.46 -751.87 749.13 C-751.54 748.8 -751.21 748.47 -750.87 748.13 C-748.03 747.81 -745.19 747.62 -742.34 747.41 C-739.87 747.13 -739.87 747.13 -738.87 746.13 C-735.51 745.8 -732.15 745.62 -728.78 745.41 C-725.87 745.13 -725.87 745.13 -724.87 744.13 C-722.74 743.98 -720.6 743.9 -718.46 743.85 C-717.16 743.81 -715.86 743.77 -714.52 743.73 C-712.44 743.68 -710.36 743.63 -708.28 743.58 C-706.28 743.53 -704.28 743.47 -702.28 743.41 C-701.07 743.38 -699.87 743.35 -698.63 743.32 C-695.87 743.13 -695.87 743.13 -694.87 742.13 C-693.39 742.03 -691.91 742 -690.43 742 C-689.54 742 -688.64 741.99 -687.72 741.99 C-686.78 742 -685.84 742 -684.87 742 C-683.93 742 -682.99 742 -682.02 741.99 C-681.12 741.99 -680.23 742 -679.31 742 C-678.9 742 -678.9 742 -676.8 742 C-674.87 742.13 -674.87 742.13 -673.87 743.13 C-671.88 743.28 -669.89 743.36 -667.9 743.41 C-667.3 743.43 -667.3 743.43 -664.23 743.52 C-663.6 743.54 -663.6 743.54 -660.37 743.63 C-657.86 743.7 -655.35 743.77 -652.84 743.85 C-652.28 743.86 -652.28 743.86 -649.45 743.94 C-646.87 744.13 -646.87 744.13 -645.87 745.13 C-643.71 745.34 -641.54 745.5 -639.37 745.63 C-632.98 746.02 -632.98 746.02 -631.87 747.13 C-630.38 747.34 -628.87 747.5 -627.37 747.63 C-622.98 748.02 -622.98 748.02 -621.87 749.13 C-620.38 749.34 -618.87 749.5 -617.37 749.63 C-612.98 750.02 -612.98 750.02 -611.87 751.13 C-610.72 751.29 -609.56 751.46 -608.37 751.63 C-604.87 752.13 -604.87 752.13 -603.87 753.13 C-602.72 753.29 -601.56 753.46 -600.37 753.63 C-596.87 754.13 -596.87 754.13 -595.87 755.13 C-593.87 755.17 -591.87 755.17 -589.87 755.13 C-588.73 752.01 -587.88 749.19 -587.5 745.88 C-586.35 739.01 -583.48 733.04 -579.87 727.13 C-579.56 726.16 -579.25 725.19 -578.93 724.19 C-577.72 720.7 -575.99 718.14 -573.87 715.13 C-573.38 714.3 -572.88 713.48 -572.37 712.63 C-570.63 709.73 -568.76 706.94 -566.87 704.13 C-566.35 703.26 -565.83 702.39 -565.29 701.49 C-562.2 696.86 -558.08 693.13 -554.12 689.25 C-553.33 688.47 -552.54 687.69 -551.72 686.88 C-549.77 684.96 -547.82 683.04 -545.87 681.13 C-547.37 676.09 -549.06 673.75 -552.87 670.13 C-553.89 668.48 -554.9 666.81 -555.87 665.13 C-556.37 664.63 -556.86 664.14 -557.37 663.63 C-559.32 661.68 -560.49 659.51 -561.87 657.13 C-562.49 656.22 -563.11 655.31 -563.75 654.38 C-565.86 651.15 -567.71 647.87 -569.53 644.47 C-570.87 642.13 -570.87 642.13 -572.75 639.43 C-575.34 635.4 -577.35 631.22 -579.37 626.88 C-579.77 626.04 -580.16 625.19 -580.57 624.32 C-582.93 619.27 -585.13 614.19 -587.11 608.98 C-587.87 607.13 -587.87 607.13 -589.43 604.69 C-591.37 601.24 -592.14 597.66 -593.11 593.84 C-593.75 591.55 -594.49 589.53 -595.5 587.38 C-596.96 583.93 -597.43 580.84 -597.87 577.13 C-598.2 576.8 -598.53 576.47 -598.87 576.13 C-599.2 573.8 -599.54 571.46 -599.87 569.13 C-600.2 568.8 -600.53 568.47 -600.87 568.13 C-601.2 565.8 -601.54 563.46 -601.87 561.13 C-602.2 560.8 -602.53 560.47 -602.87 560.13 C-603.19 557.81 -603.38 555.49 -603.59 553.16 C-603.87 551.13 -603.87 551.13 -604.87 550.13 C-605.19 547.29 -605.38 544.45 -605.59 541.6 C-605.87 539.13 -605.87 539.13 -606.87 538.13 C-607.02 536 -607.1 533.86 -607.15 531.72 C-607.17 531.07 -607.17 531.07 -607.27 527.78 C-607.32 525.7 -607.37 523.62 -607.42 521.54 C-607.47 519.54 -607.53 517.54 -607.59 515.54 C-607.62 514.33 -607.65 513.13 -607.68 511.89 C-607.87 509.13 -607.87 509.13 -608.87 508.13 C-608.97 505.45 -609.01 502.81 -609 500.13 C-609 499.38 -609 498.63 -609.01 497.86 C-609 492.26 -609 492.26 -607.87 491.13 C-607.73 489.14 -607.64 487.15 -607.59 485.16 C-607.57 484.56 -607.57 484.56 -607.48 481.49 C-607.44 480.22 -607.41 478.94 -607.37 477.63 C-607.3 475.12 -607.23 472.61 -607.15 470.1 C-607.12 468.98 -607.09 467.86 -607.06 466.71 C-606.87 464.13 -606.87 464.13 -605.87 463.13 C-605.66 460.97 -605.5 458.8 -605.37 456.63 C-604.98 450.24 -604.98 450.24 -603.87 449.13 C-603.66 447.63 -603.5 446.13 -603.37 444.63 C-602.98 440.24 -602.98 440.24 -601.87 439.13 C-601.66 437.63 -601.5 436.13 -601.37 434.63 C-600.98 430.24 -600.98 430.24 -599.87 429.13 C-599.28 423.98 -599.28 423.98 -599.87 421.13 C-602.56 418.82 -602.56 418.82 -605.87 417.13 C-609.86 414.89 -612.64 412.36 -615.87 409.13 C-616.64 408.68 -617.41 408.24 -618.21 407.78 C-621.23 405.91 -623.49 403.77 -626 401.25 C-626.84 400.41 -627.69 399.57 -628.57 398.7 C-630.73 396.28 -632.24 393.92 -633.87 391.13 C-634.12 390.89 -634.12 390.89 -635.37 389.7 C-637.53 387.44 -638.6 384.88 -639.93 382.07 C-642.66 376.34 -642.66 376.34 -644.87 374.13 C-645.62 372.21 -645.62 372.21 -646.31 369.94 C-647.23 367.02 -648.2 364.42 -649.5 361.63 C-650.94 357.95 -651.38 354.86 -651.66 350.95 C-651.87 349.13 -651.87 349.13 -652.87 348.13 C-652.97 345.18 -653.01 342.26 -653 339.32 C-653 338.43 -653.01 337.55 -653.01 336.64 C-653.01 334.76 -653.01 332.89 -653 331.02 C-653 328.14 -653 325.26 -653.01 322.39 C-653.01 320.57 -653.01 318.76 -653 316.94 C-653.01 316.08 -653.01 315.21 -653.01 314.32 C-652.99 308.24 -652.99 308.24 -651.87 307.13 C-651.81 306.61 -651.81 306.61 -651.5 304 C-650.84 299.93 -649.56 296.89 -647.87 293.13 C-647.44 291.76 -647.03 290.38 -646.62 289 C-643.5 279.45 -638.1 270.93 -631.87 263.13 C-630.93 261.82 -630 260.5 -629.06 259.19 C-624.25 252.78 -618.84 247.14 -611.87 243.13 C-611.38 242.63 -610.88 242.14 -610.37 241.63 C-602.67 233.93 -588.22 227.83 -577.78 225.57 C-575.87 225.13 -575.87 225.13 -574.87 224.13 C-572.54 223.8 -570.2 223.46 -567.87 223.13 C-567.54 222.8 -567.21 222.47 -566.87 222.13 C-564.03 221.81 -561.19 221.62 -558.34 221.41 C-555.87 221.13 -555.87 221.13 -554.87 220.13 C-552.66 220.03 -550.45 220 -548.25 220 C-547.58 220 -546.92 219.99 -546.24 219.99 C-544.84 219.99 -543.44 219.99 -542.03 220 C-539.88 220 -537.73 220 -535.57 219.99 C-534.21 219.99 -532.86 219.99 -531.5 220 C-530.87 220 -530.87 220 -527.72 220 C-524.87 220.13 -524.87 220.13 -523.87 221.13 C-521.75 221.44 -519.63 221.68 -517.5 221.88 C-516.91 221.94 -516.91 221.94 -513.97 222.24 C-510.87 222.13 -510.87 222.13 -509.04 220.79 C-507.87 219.13 -507.87 219.13 -506.62 216.88 C-504.63 213.75 -502.3 211.49 -499.59 208.97 C-497.87 207.13 -497.87 207.13 -496.43 204.69 C-494.18 201 -491.15 198.36 -488.03 195.41 C-485.87 193.13 -485.87 193.13 -484.68 190.95 C-482.18 187.05 -479.03 184 -475.75 180.75 C-475.06 180.05 -474.37 179.35 -473.65 178.64 C-472.19 177.17 -470.72 175.71 -469.25 174.25 C-467 172.01 -464.77 169.77 -462.54 167.52 C-461.11 166.1 -459.68 164.67 -458.25 163.25 C-457.59 162.58 -456.92 161.91 -456.24 161.22 C-452.97 157.98 -449.94 155.35 -445.87 153.13 C-444.33 151.67 -442.83 150.17 -441.37 148.63 C-438.39 145.48 -435.6 143.33 -431.87 141.13 C-430.03 139.41 -430.03 139.41 -428.37 137.63 C-425.73 134.9 -423.21 132.98 -419.87 131.13 C-419.38 130.63 -418.88 130.14 -418.37 129.63 C-416.44 127.69 -414.21 126.53 -411.87 125.13 C-411.38 124.63 -410.88 124.14 -410.37 123.63 C-408.42 121.68 -406.25 120.51 -403.87 119.13 C-401.86 117.81 -399.86 116.47 -397.87 115.13 C-393.87 112.46 -389.87 109.8 -385.87 107.13 C-384.94 106.49 -384.01 105.85 -383.06 105.19 C-379.79 103.08 -376.45 101.22 -373.04 99.36 C-370.22 97.76 -367.55 95.96 -364.87 94.13 C-359.77 90.95 -354.43 88.23 -349.11 85.45 C-345.29 83.44 -341.55 81.37 -337.87 79.13 C-331.47 75.48 -325.32 72.09 -318.25 70 C-313.94 68.42 -310.03 66 -306.03 63.77 C-302.65 62.01 -299.35 60.82 -295.71 59.74 C-293.87 59.13 -293.87 59.13 -291.37 57.63 C-288.4 55.84 -285.42 54.92 -282.13 53.88 C-279.87 53.13 -279.87 53.13 -276.37 51.63 C-272.97 50.17 -269.57 49.02 -266.05 47.88 C-263.87 47.13 -263.87 47.13 -260.5 45.63 C-256.56 44 -252.63 42.96 -248.52 41.88 C-245.13 40.92 -242.08 39.58 -238.87 38.13 C-235.65 36.92 -232.86 36.13 -229.43 35.69 C-225.87 35.13 -225.87 35.13 -222.37 33.63 C-218.77 32.09 -215.73 31.68 -211.87 31.13 C-210.72 30.63 -209.56 30.14 -208.37 29.63 C-204.8 28.1 -201.71 27.59 -197.87 27.13 C-197.54 26.8 -197.21 26.47 -196.87 26.13 C-194.54 25.8 -192.2 25.46 -189.87 25.13 C-189.54 24.8 -189.21 24.47 -188.87 24.13 C-186.55 23.81 -184.23 23.62 -181.9 23.41 C-179.87 23.13 -179.87 23.13 -178.87 22.13 C-176.54 21.8 -174.2 21.46 -171.87 21.13 C-171.54 20.8 -171.21 20.47 -170.87 20.13 C-168.55 19.81 -166.23 19.62 -163.9 19.41 C-161.87 19.13 -161.87 19.13 -160.87 18.13 C-158.55 17.81 -156.23 17.62 -153.9 17.41 C-151.87 17.13 -151.87 17.13 -150.87 16.13 C-148.55 15.81 -146.23 15.62 -143.9 15.41 C-141.87 15.13 -141.87 15.13 -140.87 14.13 C-138.03 13.81 -135.19 13.62 -132.34 13.41 C-129.87 13.13 -129.87 13.13 -128.87 12.13 C-126.03 11.81 -123.19 11.62 -120.34 11.41 C-117.87 11.13 -117.87 11.13 -116.87 10.13 C-113.51 9.8 -110.15 9.62 -106.78 9.41 C-103.87 9.13 -103.87 9.13 -102.87 8.13 C-99.66 7.86 -96.46 7.68 -93.24 7.52 C-87.97 7.23 -87.97 7.23 -86.87 6.13 C-83.23 5.86 -79.6 5.68 -75.95 5.52 C-69.97 5.23 -69.97 5.23 -68.87 4.13 C-67.32 3.98 -65.77 3.9 -64.21 3.85 C-63.28 3.81 -62.34 3.77 -61.37 3.73 C-60.37 3.7 -60.37 3.7 -55.38 3.52 C-54.44 3.49 -53.5 3.45 -52.53 3.41 C-52.09 3.4 -52.09 3.4 -49.9 3.32 C-47.87 3.13 -47.87 3.13 -46.87 2.13 C-43.85 1.98 -40.86 1.89 -37.84 1.85 C-36.93 1.83 -36.03 1.81 -35.09 1.79 C-31.2 1.71 -27.3 1.65 -23.41 1.58 C-20.57 1.53 -17.74 1.47 -14.9 1.41 C-14.01 1.4 -13.13 1.38 -12.21 1.37 C-7.67 1.28 -4.43 0 0 0 Z M-26.87 47.13 C-28.86 47.28 -30.85 47.36 -32.84 47.41 C-34.05 47.45 -35.26 47.49 -36.51 47.52 C-37.8 47.56 -37.8 47.56 -44.23 47.73 C-45.44 47.77 -46.66 47.81 -47.9 47.85 C-49.02 47.88 -50.14 47.91 -51.29 47.94 C-53.87 48.13 -53.87 48.13 -54.87 49.13 C-56.42 49.27 -57.97 49.36 -59.53 49.41 C-60.47 49.45 -61.41 49.49 -62.38 49.52 C-63.37 49.56 -63.37 49.56 -68.37 49.73 C-69.31 49.77 -70.25 49.81 -71.21 49.85 C-71.65 49.86 -71.65 49.86 -73.85 49.94 C-75.87 50.13 -75.87 50.13 -76.87 51.13 C-80.08 51.4 -83.28 51.58 -86.5 51.73 C-91.77 52.03 -91.77 52.03 -92.87 53.13 C-96.23 53.45 -99.59 53.64 -102.96 53.85 C-105.87 54.13 -105.87 54.13 -106.87 55.13 C-109.71 55.45 -112.55 55.64 -115.4 55.85 C-117.87 56.13 -117.87 56.13 -118.87 57.13 C-121.71 57.45 -124.55 57.64 -127.4 57.85 C-129.87 58.13 -129.87 58.13 -130.87 59.13 C-133.19 59.45 -135.51 59.64 -137.84 59.85 C-139.87 60.13 -139.87 60.13 -140.87 61.13 C-143.19 61.45 -145.51 61.64 -147.84 61.85 C-149.87 62.13 -149.87 62.13 -150.87 63.13 C-153.19 63.45 -155.51 63.64 -157.84 63.85 C-159.87 64.13 -159.87 64.13 -160.87 65.13 C-163.19 65.45 -165.51 65.64 -167.84 65.85 C-169.87 66.13 -169.87 66.13 -170.87 67.13 C-173.2 67.46 -175.54 67.8 -177.87 68.13 C-178.2 68.46 -178.53 68.79 -178.87 69.13 C-181.2 69.46 -183.54 69.8 -185.87 70.13 C-186.2 70.46 -186.53 70.79 -186.87 71.13 C-187.9 71.25 -188.93 71.38 -190 71.5 C-193.87 72.13 -193.87 72.13 -197.37 73.63 C-200.97 75.17 -204.02 75.58 -207.87 76.13 C-209.54 76.84 -211.21 77.55 -212.86 78.31 C-215.32 79.31 -217.8 79.96 -220.37 80.63 C-223.55 81.46 -226.34 82.33 -229.37 83.63 C-232.4 84.93 -235.19 85.8 -238.37 86.63 C-242.75 87.78 -246.73 89.29 -250.87 91.13 C-252.3 91.62 -253.74 92.1 -255.18 92.57 C-259.31 93.91 -263.33 95.46 -267.35 97.11 C-268.98 97.77 -270.62 98.41 -272.27 99.03 C-278.33 101.32 -283.87 104.23 -289.5 107.45 C-292.14 108.77 -294.45 109.69 -297.24 110.57 C-301.95 112.07 -306.12 114.18 -310.43 116.57 C-311.85 117.34 -313.27 118.11 -314.69 118.88 C-315.38 119.25 -316.06 119.63 -316.77 120.01 C-319.53 121.48 -322.32 122.86 -325.12 124.22 C-326.87 125.13 -326.87 125.13 -329.87 127.13 C-332.21 128.69 -334.36 129.91 -336.87 131.13 C-340.42 132.85 -343.62 134.89 -346.87 137.13 C-348.54 138.13 -350.2 139.13 -351.87 140.13 C-352.78 140.75 -353.69 141.37 -354.62 142 C-357.14 143.65 -359.6 145.09 -362.25 146.5 C-366.14 148.63 -369.59 151.06 -373.09 153.78 C-375.25 155.41 -377.55 156.74 -379.87 158.13 C-380.37 158.62 -380.86 159.12 -381.37 159.63 C-383.31 161.56 -385.53 162.72 -387.87 164.13 C-388.37 164.62 -388.86 165.12 -389.37 165.63 C-390.87 167.13 -390.87 167.13 -393.25 168.5 C-395.87 170.13 -395.87 170.13 -398.37 172.63 C-400.87 175.13 -400.87 175.13 -403.25 176.5 C-406.09 178.26 -408.08 180.21 -410.37 182.63 C-414.38 186.87 -414.38 186.87 -417.01 188.28 C-421.16 190.97 -424.43 194.4 -427.91 197.9 C-428.29 198.28 -428.29 198.28 -430.22 200.21 C-431.83 201.81 -433.43 203.42 -435.04 205.03 C-437.49 207.5 -439.95 209.95 -442.41 212.4 C-443.97 213.96 -445.54 215.52 -447.1 217.09 C-447.46 217.46 -447.46 217.46 -449.32 219.3 C-452.71 222.72 -455.6 225.84 -457.87 230.13 C-459.59 231.97 -459.59 231.97 -461.37 233.63 C-464.12 236.28 -465.95 238.82 -467.87 242.13 C-469.54 243.8 -471.2 245.46 -472.87 247.13 C-473.92 248.77 -474.92 250.43 -475.87 252.13 C-478.01 255.47 -480.08 258.34 -482.87 261.13 C-483.37 261.95 -483.86 262.78 -484.37 263.63 C-486.62 267.37 -488.79 269.53 -492.87 271.13 C-495.52 271.35 -498.03 271.45 -500.68 271.44 C-501.37 271.46 -502.06 271.47 -502.76 271.49 C-507.78 271.5 -511.29 270.32 -515.87 268.13 C-520.23 266.46 -524.03 265.82 -528.68 265.57 C-534.77 265.23 -534.77 265.23 -535.87 264.13 C-537.68 264 -537.68 264 -539.87 264 C-540.59 264 -541.31 264 -542.06 264 C-543.87 264.13 -543.87 264.13 -544.87 265.13 C-548.23 265.45 -551.59 265.64 -554.96 265.85 C-557.87 266.13 -557.87 266.13 -558.87 267.13 C-559.38 267.19 -559.38 267.19 -561.94 267.47 C-576.89 269.98 -589.88 281.49 -598.87 293.13 C-604.34 301.48 -609.14 311.27 -609.1 321.37 C-609.1 322.52 -609.1 323.67 -609.1 324.85 C-609.08 326.04 -609.07 327.22 -609.06 328.44 C-609.06 329.65 -609.06 330.85 -609.06 332.09 C-609.01 340.99 -609.01 340.99 -607.87 342.13 C-607.83 342.62 -607.83 342.62 -607.62 345.13 C-606.1 356.55 -595.83 366.36 -588.34 374.32 C-585.87 376.13 -585.87 376.13 -583.2 376.13 C-580.47 374.96 -579.92 374.3 -578.75 371.63 C-578.43 370.91 -578.1 370.2 -577.77 369.46 C-576.58 366.39 -575.58 363.28 -574.68 360.11 C-573.76 357.86 -572.61 356.8 -570.87 355.13 C-569.91 353.37 -569.91 353.37 -569.06 351.44 C-565.88 344.92 -562.24 338.74 -555.35 335.75 C-549.49 334.28 -542.48 333.77 -536.74 335.93 C-535.18 336.94 -535.18 336.94 -532.87 339.13 C-532.58 339.38 -532.58 339.38 -531.12 340.63 C-527.4 345.09 -527.44 349.38 -527.57 355 C-528.41 363.68 -533.43 371.31 -537.61 378.8 C-539.99 383.14 -541.77 387.4 -543.22 392.13 C-543.87 394.13 -543.87 394.13 -545.37 397.5 C-547 401.44 -548.04 405.37 -549.12 409.48 C-550.08 412.87 -551.42 415.92 -552.87 419.13 C-554.5 423.46 -555.24 427.55 -555.87 432.13 C-556.2 432.46 -556.53 432.79 -556.87 433.13 C-557.04 434.28 -557.2 435.44 -557.37 436.63 C-557.87 440.13 -557.87 440.13 -558.87 441.13 C-559.08 442.62 -559.24 444.13 -559.37 445.63 C-559.76 450.02 -559.76 450.02 -560.87 451.13 C-561.08 453.29 -561.24 455.46 -561.37 457.63 C-561.76 464.02 -561.76 464.02 -562.87 465.13 C-563.02 466.68 -563.1 468.23 -563.15 469.79 C-563.19 470.73 -563.23 471.67 -563.27 472.63 C-563.3 473.62 -563.34 474.61 -563.37 475.63 C-563.44 477.58 -563.51 479.53 -563.59 481.47 C-563.62 482.34 -563.65 483.21 -563.68 484.1 C-563.87 486.13 -563.87 486.13 -564.87 487.13 C-564.97 488.9 -565 490.67 -565 492.44 C-565.01 493.52 -565.01 494.59 -565.01 495.7 C-565.01 496.27 -565.01 496.27 -565 499.13 C-565 500.26 -565 501.39 -565.01 502.56 C-565.01 503.1 -565.01 503.1 -565 505.82 C-565 506.31 -565 506.31 -565 508.83 C-564.87 511.13 -564.87 511.13 -563.87 512.13 C-563.73 513.68 -563.64 515.23 -563.59 516.79 C-563.55 517.73 -563.52 518.67 -563.48 519.63 C-563.41 521.63 -563.34 523.63 -563.27 525.63 C-563.23 526.57 -563.19 527.5 -563.15 528.47 C-563.12 529.34 -563.09 530.21 -563.06 531.1 C-562.87 533.13 -562.87 533.13 -561.87 534.13 C-561.55 536.97 -561.36 539.81 -561.15 542.66 C-560.87 545.13 -560.87 545.13 -559.87 546.13 C-559.54 548.46 -559.2 550.8 -558.87 553.13 C-558.54 553.46 -558.21 553.79 -557.87 554.13 C-557.75 555.16 -557.62 556.19 -557.5 557.25 C-556.87 561.13 -556.87 561.13 -555.37 564.63 C-553.87 568.13 -553.87 568.13 -553.43 571.44 C-552.81 575.51 -551.55 578.78 -549.96 582.55 C-549.28 584.15 -548.64 585.77 -548.04 587.4 C-545.37 594.58 -541.74 601.2 -538.11 607.93 C-536.2 611.47 -534.43 615.06 -532.68 618.69 C-530.56 622.99 -528.16 626.71 -525.18 630.46 C-523.53 632.57 -522.21 634.81 -520.87 637.13 C-518.87 640.33 -516.98 643.02 -514.31 645.69 C-511.96 648.04 -510.5 650.26 -508.87 653.13 C-508.21 653.79 -507.55 654.45 -506.87 655.13 C-501.38 655.02 -498.01 653.18 -493.36 650.4 C-489.74 648.55 -486 647.65 -482.06 646.71 C-479.87 646.13 -479.87 646.13 -478.87 645.13 C-476.54 644.8 -474.2 644.46 -471.87 644.13 C-471.54 643.8 -471.21 643.47 -470.87 643.13 C-468.54 642.8 -466.2 642.46 -463.87 642.13 C-463.54 641.8 -463.21 641.47 -462.87 641.13 C-460.03 640.81 -457.19 640.62 -454.34 640.41 C-451.87 640.13 -451.87 640.13 -450.87 639.13 C-447.66 638.86 -444.46 638.68 -441.24 638.52 C-435.97 638.23 -435.97 638.23 -434.87 637.13 C-432.51 637.03 -430.17 636.99 -427.81 637 C-427.1 637 -426.4 636.99 -425.67 636.99 C-424.17 636.99 -422.68 636.99 -421.18 637 C-418.88 637 -416.58 637 -414.29 636.99 C-412.83 636.99 -411.38 636.99 -409.93 637 C-409.24 636.99 -408.55 636.99 -407.84 636.99 C-402.99 637.01 -402.99 637.01 -401.87 638.13 C-399.37 638.34 -396.88 638.51 -394.37 638.63 C-387.01 638.99 -387.01 638.99 -385.87 640.13 C-384.38 640.34 -382.87 640.5 -381.37 640.63 C-376.98 641.02 -376.98 641.02 -375.87 642.13 C-374.84 642.25 -373.81 642.38 -372.75 642.5 C-369.37 643.05 -366.91 643.9 -363.85 645.33 C-361.59 646.24 -359.37 646.72 -357 647.25 C-349.38 649.22 -342.76 653.22 -335.93 657.02 C-333.85 658.14 -331.74 659.19 -329.61 660.22 C-326.74 661.65 -324.2 663.18 -321.68 665.19 C-319.54 666.87 -317.54 668.32 -315.18 669.69 C-312.32 671.47 -310.25 673.75 -307.87 676.13 C-307.09 676.59 -306.31 677.04 -305.5 677.51 C-302.68 679.25 -300.58 681.16 -298.25 683.5 C-297.49 684.25 -296.74 685 -295.96 685.78 C-293.89 688.11 -292.44 690.45 -290.87 693.13 C-290.05 693.95 -289.22 694.78 -288.37 695.63 C-283.91 700.09 -281.35 705.9 -278.43 711.44 C-278.05 712.16 -277.67 712.88 -277.28 713.63 C-276.13 715.79 -275 717.96 -273.87 720.13 C-273.5 720.83 -273.13 721.53 -272.75 722.25 C-270.74 726.13 -269.22 729.79 -268.18 734.07 C-266.96 739.04 -266.96 739.04 -265.87 740.13 C-265.54 742.46 -265.2 744.8 -264.87 747.13 C-264.54 747.46 -264.21 747.79 -263.87 748.13 C-263.55 750.97 -263.36 753.81 -263.15 756.66 C-262.87 759.13 -262.87 759.13 -261.87 760.13 C-261.77 762.49 -261.73 764.83 -261.74 767.19 C-261.74 767.55 -261.74 767.55 -261.74 769.33 C-261.73 770.83 -261.74 772.33 -261.74 773.82 C-261.75 776.12 -261.74 778.42 -261.73 780.72 C-261.74 782.17 -261.74 783.62 -261.74 785.07 C-261.74 785.76 -261.73 786.45 -261.73 787.16 C-261.76 792.01 -261.76 792.01 -262.87 793.13 C-263.33 798.37 -263.33 798.37 -261.75 801 C-259.06 802.61 -256.94 802.4 -253.87 802.13 C-253.54 801.8 -253.21 801.47 -252.87 801.13 C-252.36 801.07 -252.36 801.07 -249.75 800.75 C-246.39 800.21 -243.93 799.36 -240.88 797.95 C-238.48 796.97 -236.07 796.34 -233.56 795.69 C-226.9 793.95 -220.69 791.41 -214.43 788.57 C-211.35 787.32 -208.45 786.46 -205.25 785.63 C-202.26 784.85 -200.02 784.22 -197.37 782.63 C-193.96 780.58 -190.4 779.86 -186.57 778.88 C-183.87 778.13 -183.87 778.13 -180.37 776.63 C-177.34 775.33 -174.55 774.46 -171.37 773.63 C-166.96 772.48 -163.02 771 -158.87 769.13 C-154.54 767.5 -150.45 766.76 -145.87 766.13 C-145.54 765.8 -145.21 765.47 -144.87 765.13 C-142.54 764.8 -140.2 764.46 -137.87 764.13 C-137.54 763.8 -137.21 763.47 -136.87 763.13 C-134.54 762.8 -132.2 762.46 -129.87 762.13 C-129.54 761.8 -129.21 761.47 -128.87 761.13 C-126.54 760.8 -124.2 760.46 -121.87 760.13 C-121.54 759.8 -121.21 759.47 -120.87 759.13 C-118.54 758.8 -116.2 758.46 -113.87 758.13 C-113.54 757.8 -113.21 757.47 -112.87 757.13 C-110.03 756.81 -107.19 756.62 -104.34 756.41 C-101.87 756.13 -101.87 756.13 -100.87 755.13 C-98.03 754.81 -95.19 754.62 -92.34 754.41 C-89.87 754.13 -89.87 754.13 -88.87 753.13 C-85.66 752.86 -82.46 752.68 -79.24 752.52 C-73.97 752.23 -73.97 752.23 -72.87 751.13 C-71.47 750.99 -70.06 750.9 -68.65 750.85 C-67.8 750.81 -66.95 750.77 -66.08 750.73 C-65.18 750.7 -65.18 750.7 -60.66 750.52 C-59.81 750.49 -58.97 750.45 -58.09 750.41 C-57.31 750.38 -56.52 750.35 -55.71 750.32 C-53.87 750.13 -53.87 750.13 -52.87 749.13 C-51.13 749.03 -49.38 749 -47.63 749 C-47.07 749 -47.07 749 -44.25 748.99 C-43.64 748.99 -43.64 748.99 -40.56 749 C-39.32 749 -38.08 748.99 -36.8 748.99 C-34.18 748.99 -31.55 748.99 -28.92 749 C-25.55 749 -22.18 749 -18.81 749 C-15.6 748.99 -12.39 748.99 -9.18 749 C-8.58 749 -8.58 749 -5.5 748.99 C-4.38 748.99 -3.26 749 -2.11 749 C-1.12 749 -0.13 749 0.89 749 C3.13 749.13 3.13 749.13 4.13 750.13 C5.82 750.27 7.52 750.36 9.22 750.41 C9.74 750.43 9.74 750.43 12.34 750.52 C12.89 750.54 12.89 750.54 15.63 750.63 C17.76 750.7 19.9 750.77 22.04 750.85 C22.51 750.86 22.51 750.86 24.92 750.94 C27.13 751.13 27.13 751.13 28.13 752.13 C30.29 752.34 32.46 752.5 34.63 752.63 C41.02 753.02 41.02 753.02 42.13 754.13 C43.62 754.34 45.13 754.5 46.63 754.63 C51.02 755.02 51.02 755.02 52.13 756.13 C53.96 756.34 55.79 756.5 57.63 756.63 C63.02 757.02 63.02 757.02 64.13 758.13 C65.28 758.29 66.44 758.46 67.63 758.63 C71.13 759.13 71.13 759.13 72.13 760.13 C73.28 760.29 74.44 760.46 75.63 760.63 C79.13 761.13 79.13 761.13 80.13 762.13 C81.28 762.29 82.44 762.46 83.63 762.63 C87.13 763.13 87.13 763.13 88.13 764.13 C89.16 764.25 90.19 764.38 91.25 764.5 C95.31 765.16 98.4 766.43 102.13 768.13 C105.35 769.34 108.14 770.13 111.57 770.57 C114.78 771.07 117.18 771.95 120.11 773.31 C122.61 774.32 125.14 774.96 127.75 775.63 C131.74 776.67 134.6 778.01 138.13 780.13 C140.88 780.96 143.65 781.67 146.43 782.38 C149.81 783.32 152.92 784.7 156.13 786.13 C157.62 786.64 159.12 787.14 160.63 787.63 C163.36 788.51 165.87 789.46 168.5 790.63 C172.44 792.26 176.37 793.3 180.48 794.38 C183.87 795.34 186.92 796.68 190.13 798.13 C193.35 799.34 196.14 800.13 199.57 800.57 C203.47 801.18 206.5 802.58 210.13 804.13 C212.46 804.5 214.79 804.85 217.13 805.13 C217.46 805.46 217.79 805.79 218.13 806.13 C219.28 806.29 220.44 806.46 221.63 806.63 C225.13 807.13 225.13 807.13 226.13 808.13 C227.28 808.29 228.44 808.46 229.63 808.63 C233.13 809.13 233.13 809.13 234.13 810.13 C235.62 810.34 237.13 810.5 238.63 810.63 C243.02 811.02 243.02 811.02 244.13 812.13 C245.62 812.34 247.13 812.5 248.63 812.63 C253.02 813.02 253.02 813.02 254.13 814.13 C255.96 814.34 257.79 814.5 259.63 814.63 C265.02 815.02 265.02 815.02 266.13 816.13 C275.25 816.9 284.59 816.8 291.91 810.63 C292.31 810.13 292.72 809.64 293.13 809.13 C292.88 807 292.88 807 292.13 804.13 C291.85 801.76 291.63 799.39 291.41 797.02 C291.13 795.13 291.13 795.13 290.13 794.13 C290.03 791.33 289.99 788.55 290 785.75 C290 784.91 289.99 784.08 289.99 783.21 C289.99 781.43 289.99 779.65 290 777.87 C290 775.14 290 772.41 289.99 769.68 C289.99 767.95 289.99 766.23 290 764.5 C289.99 763.68 289.99 762.86 289.99 762.01 C290.01 756.24 290.01 756.24 291.13 755.13 C291.34 753.63 291.5 752.13 291.63 750.63 C292.02 746.24 292.02 746.24 293.13 745.13 C293.23 744.16 293.34 743.19 293.44 742.19 C294.1 737.17 296.17 732.77 298.13 728.13 C298.78 726.44 299.42 724.75 300.07 723.07 C302.93 715.9 306.79 709.49 311.13 703.13 C311.6 702.28 312.08 701.44 312.57 700.57 C314.42 697.68 316.71 695.55 319.13 693.13 C319.6 692.34 320.06 691.55 320.55 690.73 C322.14 688.12 323.81 686.19 325.96 684.03 C326.7 683.29 327.43 682.55 328.19 681.79 C328.95 681.04 329.72 680.28 330.5 679.5 C331.26 678.74 332.01 677.98 332.79 677.19 C333.53 676.46 334.27 675.72 335.03 674.97 C335.69 674.3 336.36 673.64 337.05 672.95 C339.27 671.01 341.58 669.61 344.13 668.13 C344.62 667.63 345.12 667.14 345.63 666.63 C349.63 662.63 355.47 660.31 360.44 657.69 C361.16 657.31 361.88 656.93 362.63 656.53 C364.79 655.39 366.96 654.26 369.13 653.13 C369.48 652.94 369.48 652.94 371.26 652.01 C375.02 650.06 378.54 648.55 382.69 647.57 C385.9 646.76 388.87 645.9 391.88 644.5 C395.33 643.04 398.42 642.57 402.13 642.13 C402.46 641.8 402.79 641.47 403.13 641.13 C405.46 640.8 407.8 640.46 410.13 640.13 C410.46 639.8 410.79 639.47 411.13 639.13 C413.97 638.81 416.81 638.62 419.66 638.41 C422.13 638.13 422.13 638.13 423.13 637.13 C424.63 637.03 426.13 637 427.63 637 C428.11 637 428.11 637 430.53 636.99 C431.58 636.99 432.62 636.99 433.69 637 C434.75 637 435.81 636.99 436.91 636.99 C439.16 636.99 441.41 636.99 443.66 637 C447.11 637 450.57 637 454.03 636.99 C456.21 636.99 458.39 636.99 460.57 637 C461.61 636.99 462.65 636.99 463.72 636.99 C464.68 636.99 465.64 637 466.62 637 C467.47 637 468.32 637 469.19 637 C471.13 637.13 471.13 637.13 472.13 638.13 C473.96 638.34 475.79 638.5 477.63 638.63 C483.02 639.02 483.02 639.02 484.13 640.13 C485.62 640.34 487.13 640.5 488.63 640.63 C493.02 641.02 493.02 641.02 494.13 642.13 C495.28 642.29 496.44 642.46 497.63 642.63 C501.13 643.13 501.13 643.13 502.13 644.13 C503.2 644.25 504.27 644.38 505.38 644.5 C509.13 645.13 509.13 645.13 511.38 646.5 C514.94 648.61 518.55 649.36 522.54 650.36 C525.13 651.13 525.13 651.13 528.07 652.94 C528.41 653.14 528.41 653.14 530.13 654.13 C536.46 651.74 540.95 645.86 544.13 640.13 C545.13 639.13 546.13 638.13 547.13 637.13 C548.16 635.48 549.15 633.81 550.13 632.13 C550.75 631.22 551.37 630.31 552 629.38 C554.16 626.09 556.03 622.72 557.91 619.27 C559.13 617.13 559.13 617.13 561.07 614.32 C565.53 607.41 568.97 600.13 571.35 592.27 C572.21 589.9 573.34 587.91 574.63 585.75 C577.09 581.54 578.29 577.42 579.44 572.7 C580.04 570.44 580.77 568.49 581.75 566.38 C583.22 562.93 583.68 559.84 584.13 556.13 C584.46 555.8 584.79 555.47 585.13 555.13 C585.21 554.55 585.21 554.55 585.63 551.63 C586.13 548.13 586.13 548.13 587.13 547.13 C587.34 545.63 587.5 544.13 587.63 542.63 C588.02 538.24 588.02 538.24 589.13 537.13 C589.34 535.3 589.5 533.47 589.63 531.63 C590.02 526.24 590.02 526.24 591.13 525.13 C591.34 522.63 591.5 520.14 591.63 517.63 C591.99 510.26 591.99 510.26 593.13 509.13 C593.23 506.62 593.27 504.14 593.26 501.63 C593.26 501.25 593.26 501.25 593.26 499.35 C593.27 497.76 593.26 496.17 593.26 494.58 C593.25 492.14 593.26 489.7 593.27 487.25 C593.26 485.71 593.26 484.17 593.26 482.63 C593.26 481.89 593.27 481.16 593.27 480.4 C593.24 475.24 593.24 475.24 592.13 474.13 C591.98 472.58 591.9 471.03 591.85 469.47 C591.83 469 591.83 469 591.73 466.63 C591.66 464.63 591.59 462.63 591.52 460.63 C591.5 460.16 591.5 460.16 591.41 457.79 C591.4 457.35 591.4 457.35 591.32 455.15 C591.13 453.13 591.13 453.13 590.13 452.13 C589.81 449.29 589.62 446.45 589.41 443.6 C589.13 441.13 589.13 441.13 588.13 440.13 C587.8 437.8 587.46 435.46 587.13 433.13 C586.8 432.8 586.47 432.47 586.13 432.13 C585.8 429.8 585.46 427.46 585.13 425.13 C584.8 424.8 584.47 424.47 584.13 424.13 C583.8 421.8 583.46 419.46 583.13 417.13 C582.8 416.8 582.47 416.47 582.13 416.13 C582.07 415.61 582.07 415.61 581.75 413 C581.21 409.65 580.37 407.2 578.95 404.15 C577.93 401.65 577.3 399.12 576.63 396.5 C575.59 392.54 574.32 389.6 572.13 386.13 C571.6 384.64 571.1 383.14 570.63 381.63 C569.8 379.01 569.05 377 567.63 374.63 C566.24 372.31 565.54 370.44 564.75 367.88 C563.7 364.47 562.37 361.81 560.44 358.82 C557.32 353.43 557.19 348.2 558.13 342.13 C559.82 338.69 559.82 338.69 562.13 336.13 C562.52 335.68 562.52 335.68 564.5 333.38 C568.95 329.56 573.28 328.7 579.11 328.88 C585.26 329.64 589.11 332.66 593.13 337.13 C593.67 337.62 594.2 338.12 594.75 338.63 C598.57 342.79 600.97 348.43 603.63 353.38 C604.02 354.09 604.41 354.81 604.81 355.54 C607.23 360.05 608.99 364.42 610.34 369.37 C610.47 369.66 610.47 369.66 611.13 371.13 C612.12 371.46 613.11 371.79 614.13 372.13 C626.06 361.41 636.17 350.67 638.13 334.13 C638.46 333.8 638.79 333.47 639.13 333.13 C639.41 329.6 639.36 326.05 639.38 322.5 C639.4 321.52 639.42 320.53 639.44 319.52 C639.47 313.51 638.86 309.47 636.13 304.13 C635.63 302.62 635.14 301.1 634.69 299.57 C633.4 295.59 631.62 292.52 629.13 289.13 C628.85 288.67 628.85 288.67 627.44 286.32 C622.97 280.15 617.77 274.9 611.13 271.13 C610.24 270.49 609.36 269.85 608.44 269.19 C604.81 266.93 601.19 265.46 597.2 263.96 C595.13 263.13 595.13 263.13 594.13 262.13 C592.97 261.96 591.82 261.8 590.63 261.63 C587.13 261.13 587.13 261.13 586.13 260.13 C583.92 260.03 581.71 260 579.5 260 C579.17 260 579.17 260 577.5 259.99 C576.1 259.99 574.69 259.99 573.29 260 C571.14 260 568.99 260 566.83 259.99 C565.47 259.99 564.11 259.99 562.75 260 C562.13 260 562.13 260 558.98 260 C556.13 260.13 556.13 260.13 555.13 261.13 C554.16 261.23 553.19 261.34 552.19 261.44 C547.45 262.04 540.58 263.67 537.13 267.13 C529.88 267.95 524.11 267.51 517.9 263.56 C515.61 261.71 514.38 259.78 513.13 257.13 C512.63 256.63 512.14 256.14 511.63 255.63 C509.68 253.68 508.51 251.51 507.13 249.13 C505.13 245.93 503.24 243.24 500.57 240.57 C498.13 238.13 498.13 238.13 496.76 235.76 C495 232.92 493.05 230.92 490.63 228.63 C486.4 224.62 486.4 224.62 484.95 221.96 C482.39 217.98 479.14 214.86 475.79 211.53 C475.08 210.81 474.36 210.09 473.62 209.35 C472.11 207.84 470.6 206.33 469.08 204.82 C466.76 202.51 464.46 200.2 462.15 197.88 C460.68 196.41 459.21 194.94 457.73 193.47 C457.04 192.77 456.36 192.08 455.65 191.37 C452.33 188.08 449.27 185.38 445.13 183.13 C442.8 180.93 440.62 178.62 438.41 176.29 C436.12 174.12 433.86 172.68 431.13 171.13 C430.13 170.13 429.13 169.13 428.13 168.13 C427.35 167.68 426.56 167.22 425.75 166.75 C422.75 164.9 420.62 162.62 418.13 160.13 C416.48 159.11 414.81 158.1 413.13 157.13 C412.13 156.13 411.13 155.13 410.13 154.13 C408.48 153.1 406.81 152.11 405.13 151.13 C403.12 149.81 401.12 148.47 399.13 147.13 C398.14 146.47 397.15 145.81 396.13 145.13 C387.13 139.13 387.13 139.13 384.47 137.29 C380.64 134.81 376.68 132.72 372.63 130.63 C368.68 128.6 364.83 126.6 361.15 124.11 C357.37 121.63 353.42 119.82 349.32 117.94 C342.85 114.94 336.52 111.79 330.25 108.38 C323.4 104.67 316.47 101.75 309.13 99.13 C299.9 95.62 299.9 95.62 296.69 93.57 C293.2 91.61 289.56 90.87 285.69 89.88 C282.82 89.04 280.69 87.67 278.13 86.13 C275.38 85.3 272.61 84.59 269.82 83.88 C266.45 82.94 263.35 81.51 260.13 80.13 C257.23 79.29 254.32 78.52 251.39 77.78 C249.13 77.13 249.13 77.13 248.13 76.13 C247.61 76.07 247.61 76.07 245 75.75 C240.96 75.1 237.88 73.74 234.13 72.13 C231.8 71.75 229.47 71.41 227.13 71.13 C226.8 70.8 226.47 70.47 226.13 70.13 C225.55 70.05 225.55 70.05 222.63 69.63 C219.13 69.13 219.13 69.13 218.13 68.13 C217.55 68.05 217.55 68.05 214.63 67.63 C211.13 67.13 211.13 67.13 210.13 66.13 C209.55 66.05 209.55 66.05 206.63 65.63 C203.13 65.13 203.13 65.13 202.13 64.13 C200.63 63.92 199.13 63.76 197.63 63.63 C193.24 63.24 193.24 63.24 192.13 62.13 C190.63 61.92 189.13 61.76 187.63 61.63 C183.24 61.24 183.24 61.24 182.13 60.13 C180.63 59.92 179.13 59.76 177.63 59.63 C173.24 59.24 173.24 59.24 172.13 58.13 C170.3 57.92 168.47 57.76 166.63 57.63 C161.24 57.24 161.24 57.24 160.13 56.13 C158.3 55.92 156.47 55.76 154.63 55.63 C149.24 55.24 149.24 55.24 148.13 54.13 C146.3 53.92 144.47 53.76 142.63 53.63 C137.24 53.24 137.24 53.24 136.13 52.13 C133.62 51.92 131.14 51.75 128.63 51.63 C121.26 51.26 121.26 51.26 120.13 50.13 C118.73 49.99 117.32 49.9 115.91 49.85 C115.49 49.83 115.49 49.83 113.34 49.73 C112.44 49.7 111.55 49.67 110.63 49.63 C108.87 49.56 107.11 49.49 105.35 49.41 C104.56 49.38 103.78 49.35 102.97 49.32 C101.13 49.13 101.13 49.13 100.13 48.13 C98.29 47.98 96.44 47.9 94.6 47.85 C93.48 47.81 92.36 47.77 91.2 47.73 C90.02 47.7 88.84 47.67 87.63 47.63 C85.31 47.56 82.98 47.49 80.66 47.41 C80.14 47.4 80.14 47.4 77.52 47.32 C75.13 47.13 75.13 47.13 74.13 46.13 C71.03 46.03 67.95 45.99 64.85 46 C63.88 46 62.9 46 61.9 45.99 C58.66 45.99 55.43 45.99 52.19 46 C49.95 46 47.72 45.99 45.48 45.99 C40.78 45.99 36.08 45.99 31.38 46 C25.35 46 19.31 46 13.27 46 C8.65 45.99 4.03 45.99 -0.6 46 C-2.82 46 -5.05 46 -7.28 45.99 C-10.38 45.99 -13.49 45.99 -16.59 46 C-17.06 46 -17.06 46 -19.41 45.99 C-25.76 46.02 -25.76 46.02 -26.87 47.13 Z M441.13 675.13 C439.58 675.27 438.03 675.36 436.47 675.41 C435.53 675.45 434.59 675.49 433.62 675.52 C431.63 675.59 429.63 675.66 427.63 675.73 C426.69 675.77 425.75 675.81 424.79 675.85 C424.35 675.86 424.35 675.86 422.15 675.94 C420.13 676.13 420.13 676.13 419.13 677.13 C416.8 677.46 414.46 677.8 412.13 678.13 C411.8 678.46 411.47 678.79 411.13 679.13 C410.64 679.18 410.64 679.18 408.19 679.44 C404.09 679.98 400.56 681.42 396.76 683.02 C393.3 684.48 389.78 685.79 386.26 687.1 C384.02 688.18 382.84 689.36 381.13 691.13 C379.37 692.09 379.37 692.09 377.44 692.94 C368.91 697.06 362.42 703.52 355.82 710.19 C355.02 710.98 354.22 711.77 353.4 712.58 C352.63 713.35 351.87 714.12 351.08 714.91 C350.39 715.6 349.7 716.29 348.99 717 C347.02 719.25 345.6 721.54 344.13 724.13 C343.82 724.58 343.82 724.58 342.25 726.88 C336.87 735.11 333.48 742.31 332.13 752.13 C331.96 752.29 331.96 752.29 331.13 753.13 C330.96 754.28 330.8 755.44 330.63 756.63 C330.13 760.13 330.13 760.13 329.13 761.13 C328.82 764.93 328.85 768.75 328.82 772.57 C328.79 773.62 328.76 774.68 328.73 775.77 C328.66 784.33 329.99 791.79 335.71 798.44 C336.18 798.89 336.18 798.89 338.5 801.13 C339.42 802.04 340.33 802.94 341.28 803.88 C346.84 808.27 352.45 808.66 359.34 808.49 C362.13 808.13 362.13 808.13 365.32 806.32 C367.59 802.31 367.82 799.01 367.99 794.46 C368.13 792.13 368.13 792.13 369.13 791.13 C369.19 790.61 369.19 790.61 369.5 788 C370.16 783.93 371.44 780.89 373.13 777.13 C373.62 775.61 374.1 774.09 374.57 772.57 C375.86 768.59 377.64 765.52 380.13 762.13 C380.77 761.12 381.41 760.11 382.07 759.07 C384.96 754.94 388.17 750.69 393.13 749.13 C400.19 748.45 403.25 749.94 408.77 754.48 C411.05 757.25 410.65 759.95 410.56 763.42 C409.71 768.76 406.92 773.33 403.13 777.13 C402.38 779.05 402.38 779.05 401.69 781.32 C400.82 784.16 399.86 786.67 398.56 789.36 C396.71 793.61 396.65 797.61 396.69 802.19 C396.67 802.97 396.65 803.75 396.63 804.55 C396.64 809.9 397.68 812.84 401.13 817.13 C401.56 817.73 402 818.33 402.44 818.94 C405.09 820.81 407.96 820.78 411.13 821.13 C411.46 821.46 411.79 821.79 412.13 822.13 C414.13 822.23 416.13 822.26 418.13 822.25 C419.22 822.26 420.32 822.26 421.44 822.26 C424.13 822.13 424.13 822.13 425.13 821.13 C425.64 821.07 425.64 821.07 428.25 820.75 C433.3 819.94 437.28 818.39 441.5 815.5 C443.63 812.39 443.74 809.77 443.95 806.06 C444.13 804.13 444.13 804.13 445.13 803.13 C445.29 801.76 445.41 800.38 445.5 799 C445.95 794.57 447.24 791.19 449.13 787.13 C449.6 785.68 450.06 784.22 450.5 782.75 C453.34 774.11 457.6 767.18 465 761.75 C470.03 760.28 473.8 760.5 478.44 762.69 C481.68 765.63 482.88 767.95 484.13 772.13 C483.94 774.69 483.94 774.69 483.13 777.13 C482.86 778.1 482.59 779.07 482.32 780.07 C481.13 783.13 481.13 783.13 479.25 785.88 C474.46 793.21 472.04 800.32 473.13 809.13 C474.13 810.13 474.13 810.13 477.75 810.38 C481.33 810.34 483.91 809.56 487.16 807.98 C489.54 806.95 491.93 806.33 494.44 805.69 C499.02 804.49 503.31 802.98 507.68 801.15 C509.28 800.48 510.89 799.84 512.52 799.23 C518.59 796.94 524.13 794.03 529.76 790.81 C532.4 789.49 534.71 788.57 537.5 787.69 C542.21 786.19 546.37 784.07 550.69 781.69 C552.11 780.92 553.53 780.15 554.95 779.38 C555.63 779.01 556.32 778.64 557.03 778.25 C565.9 773.51 565.9 773.51 570.38 772.13 C573.48 771 574.99 769.6 577.13 767.13 C576.8 766.14 576.47 765.15 576.13 764.13 C576 762.44 575.9 760.76 575.82 759.07 C574.82 747.45 568.68 737.06 561.56 728.05 C560.13 726.13 560.13 726.13 558.81 723.79 C557.06 721.01 555.17 718.91 552.86 716.59 C552.03 715.76 551.21 714.94 550.36 714.08 C549.93 713.66 549.93 713.66 547.75 711.5 C546.9 710.65 546.05 709.79 545.18 708.9 C544.76 708.49 544.76 708.49 542.67 706.4 C541.92 705.65 541.17 704.91 540.39 704.13 C538.1 702.1 535.8 700.64 533.13 699.13 C532.2 698.5 531.28 697.87 530.33 697.23 C521.41 691.38 511.87 686.01 501.42 683.68 C499.24 683.16 497.4 682.45 495.38 681.5 C491.93 680.04 488.83 679.57 485.13 679.13 C484.8 678.8 484.47 678.47 484.13 678.13 C482.63 677.92 481.13 677.76 479.63 677.63 C475.24 677.24 475.24 677.24 474.13 676.13 C472.73 675.99 471.32 675.9 469.91 675.85 C469.49 675.83 469.49 675.83 467.34 675.73 C466.44 675.7 465.55 675.67 464.63 675.63 C462.87 675.56 461.11 675.49 459.35 675.41 C458.56 675.38 457.78 675.35 456.97 675.32 C455.13 675.13 455.13 675.13 454.13 674.13 C452.13 674.03 450.13 674 448.13 674 C447.04 674 445.94 674 444.82 674 C442.13 674.13 442.13 674.13 441.13 675.13 Z M-442.87 677.13 C-445.71 677.45 -448.55 677.64 -451.4 677.85 C-453.87 678.13 -453.87 678.13 -454.87 679.13 C-455.9 679.25 -456.93 679.38 -458 679.5 C-461.36 680.05 -463.81 680.89 -466.86 682.32 C-469.28 683.3 -471.71 683.88 -474.25 684.5 C-478.95 685.72 -482.73 687.52 -486.88 690 C-489.43 691.44 -492.1 692.21 -494.87 693.13 C-496.9 694.41 -498.9 695.75 -500.87 697.13 C-502.54 698.13 -504.2 699.13 -505.87 700.13 C-510.29 702.82 -513.64 705.84 -517.2 709.52 C-519.23 711.47 -521.42 712.77 -523.87 714.13 C-525.85 715.81 -526.94 717.24 -528.25 719.5 C-529.87 722.13 -529.87 722.13 -532.31 724.44 C-534.98 727.25 -536.3 729.7 -537.91 733.16 C-538.87 735.13 -538.87 735.13 -540.87 738 C-543.53 742.16 -545.16 746.52 -546.87 751.13 C-547.28 752.16 -547.7 753.19 -548.12 754.25 C-549.97 761.35 -549.11 765.78 -545.51 771.99 C-542.73 775.61 -539.28 776.97 -535.12 778.63 C-533.42 779.37 -531.72 780.11 -530.02 780.86 C-529.17 781.23 -528.31 781.6 -527.43 781.98 C-523.41 783.78 -519.55 785.85 -515.68 787.94 C-500.5 796.13 -500.5 796.13 -495.18 797.69 C-492.63 798.49 -490.77 799.19 -488.5 800.63 C-485.02 802.62 -481.45 803.38 -477.59 804.38 C-474.16 805.33 -471.11 806.67 -467.87 808.13 C-463.54 809.75 -459.45 810.5 -454.87 811.13 C-454.54 811.46 -454.21 811.79 -453.87 812.13 C-452.06 812.26 -452.06 812.26 -449.87 812.25 C-449.15 812.26 -448.43 812.26 -447.68 812.26 C-445.87 812.13 -445.87 812.13 -444.87 811.13 C-444.31 805.29 -444.36 800.99 -447.87 796.13 C-448.18 795.16 -448.49 794.19 -448.81 793.19 C-450.01 789.72 -451.78 787.14 -453.87 784.13 C-456.88 779.16 -456.69 773.75 -455.87 768.13 C-453.24 764.23 -453.24 764.23 -449.87 763.13 C-444.11 762.33 -439.07 762.06 -433.76 764.64 C-430.06 767.83 -428.26 771.17 -426.12 775.5 C-425.74 776.25 -425.35 776.99 -424.95 777.75 C-421.69 784.15 -419.85 790 -418.87 797.13 C-418.54 797.46 -418.21 797.79 -417.87 798.13 C-417.74 800.19 -417.64 802.25 -417.56 804.32 C-417.17 809.94 -416.61 812.95 -412.87 817.13 C-412.44 817.73 -412 818.33 -411.56 818.94 C-408.91 820.81 -406.04 820.78 -402.87 821.13 C-402.54 821.46 -402.21 821.79 -401.87 822.13 C-398.67 822.41 -395.46 822.36 -392.25 822.38 C-391.36 822.4 -390.46 822.42 -389.55 822.44 C-382.81 822.48 -377.88 821.65 -372.56 817.19 C-368.92 812.74 -368.53 808.98 -368.56 803.32 C-368.54 802.63 -368.53 801.94 -368.51 801.24 C-368.51 796.23 -369.68 792.7 -371.87 788.13 C-372.64 785.81 -373.34 783.49 -374.03 781.15 C-374.98 778.88 -376.1 777.8 -377.87 776.13 C-382.26 770.03 -383.05 763.47 -381.87 756.13 C-379.42 752.18 -376.88 750.9 -372.56 749.63 C-367.7 748.77 -364.12 749.7 -359.87 752.13 C-351.29 759.08 -345.77 772.6 -343.38 783.08 C-342.87 785.13 -342.87 785.13 -341.87 786.13 C-341.55 788.45 -341.36 790.77 -341.15 793.1 C-340.87 795.13 -340.87 795.13 -339.87 796.13 C-339.63 798.38 -339.49 800.64 -339.35 802.9 C-338.87 805.13 -338.87 805.13 -337.82 806.89 C-334.75 808.84 -331.58 808.6 -328.06 808.57 C-327.36 808.59 -326.66 808.61 -325.94 808.63 C-320.79 808.62 -318.03 807.36 -313.87 804.13 C-312.98 803.66 -312.1 803.18 -311.18 802.69 C-308.41 800.82 -307.41 799.08 -305.87 796.13 C-305.36 795.33 -304.84 794.52 -304.31 793.69 C-300.62 787.12 -300.59 781.17 -300.68 773.82 C-300.68 772.8 -300.68 771.79 -300.69 770.74 C-300.73 763.27 -300.73 763.27 -301.87 762.13 C-302.2 759.8 -302.54 757.46 -302.87 755.13 C-303.2 754.8 -303.53 754.47 -303.87 754.13 C-303.93 753.59 -303.93 753.59 -304.25 750.88 C-304.88 747.05 -305.87 745.37 -307.87 742.13 C-308.38 740.66 -308.85 739.18 -309.31 737.69 C-310.59 733.65 -312.35 730.57 -314.87 727.13 C-315.51 726.12 -316.15 725.11 -316.81 724.07 C-318.87 721.13 -318.87 721.13 -321.43 718.57 C-323.87 716.13 -323.87 716.13 -325.25 713.75 C-328.67 708.22 -333.29 704.36 -338.87 701.13 C-339.55 700.37 -340.23 699.61 -340.93 698.83 C-344.71 695.36 -348.71 693.58 -353.37 691.5 C-355.05 690.74 -356.73 689.98 -358.4 689.22 C-359.19 688.86 -359.97 688.5 -360.78 688.13 C-362.87 687.13 -362.87 687.13 -365.61 685.46 C-368.23 683.92 -370.67 683.23 -373.62 682.5 C-378.78 681.22 -378.78 681.22 -379.87 680.13 C-381.03 679.96 -382.18 679.8 -383.37 679.63 C-386.87 679.13 -386.87 679.13 -387.87 678.13 C-389.7 677.92 -391.53 677.76 -393.37 677.63 C-398.76 677.24 -398.76 677.24 -399.87 676.13 C-402.96 676.03 -406.03 675.99 -409.12 676 C-410.05 676 -410.98 675.99 -411.93 675.99 C-413.9 675.99 -415.87 675.99 -417.84 676 C-420.86 676 -423.88 676 -426.9 675.99 C-428.81 675.99 -430.71 675.99 -432.62 676 C-433.53 675.99 -434.44 675.99 -435.38 675.99 C-441.76 676.01 -441.76 676.01 -442.87 677.13 Z "  transform="translate(1238.87109375,817.87060546875)"/>
<path d="M0 0 C4.22 3.66 6.73 6.49 7.34 12.1 C7.42 19.78 6.95 26.27 3 33 C2 34 1 35 0 36 C-0.39 36.72 -0.79 37.44 -1.2 38.18 C-3.87 42.37 -7.35 45.64 -10.88 49.12 C-11.58 49.84 -12.29 50.56 -13.02 51.29 C-16.48 54.74 -19.65 57.69 -24 60 C-24.97 60.65 -25.93 61.3 -26.93 61.96 C-34.7 67.11 -42.47 71.25 -51.58 73.38 C-54 74 -54 74 -57.62 75.62 C-61.25 77.1 -64.31 77.51 -68.18 77.79 C-70 78 -70 78 -71 79 C-73.51 79.1 -75.99 79.14 -78.5 79.13 C-79.25 79.13 -80 79.13 -80.78 79.14 C-82.37 79.14 -83.96 79.13 -85.55 79.13 C-87.99 79.13 -90.43 79.13 -92.88 79.14 C-94.42 79.14 -95.96 79.13 -97.5 79.13 C-98.24 79.13 -98.97 79.14 -99.73 79.14 C-104.89 79.11 -104.89 79.11 -106 78 C-107.49 77.79 -109 77.63 -110.5 77.5 C-114.89 77.11 -114.89 77.11 -116 76 C-116.97 75.9 -117.94 75.79 -118.94 75.69 C-131.68 73.96 -144.16 65.88 -154 58 C-155.44 56.93 -156.87 55.87 -158.31 54.81 C-162.62 51.64 -165.36 48.67 -168 44 C-168.43 43.42 -168.86 42.84 -169.3 42.24 C-172.67 37.26 -173.5 32.76 -173.56 26.81 C-173.58 26.14 -173.59 25.46 -173.61 24.76 C-173.51 19.72 -172.23 16.81 -169 13 C-164.31 8.99 -160.57 8.26 -154.62 8.31 C-153.87 8.32 -153.11 8.32 -152.33 8.33 C-147.82 8.51 -144.9 9 -141.44 12.12 C-140.28 13.41 -139.14 14.7 -138 16 C-136.61 17.1 -135.19 18.16 -133.75 19.19 C-131.66 20.69 -129.9 22.1 -128.13 23.98 C-125.64 26.34 -123.2 27.63 -120.12 29.12 C-119.12 29.62 -118.11 30.12 -117.07 30.63 C-111.71 33.02 -106.79 34.2 -101 35 C-100.67 35.33 -100.34 35.66 -100 36 C-98.23 36.1 -96.46 36.13 -94.69 36.13 C-93.61 36.13 -92.54 36.14 -91.43 36.14 C-90.3 36.13 -89.17 36.13 -88 36.12 C-86.87 36.13 -85.74 36.13 -84.57 36.14 C-83.5 36.14 -82.42 36.13 -81.31 36.13 C-80.32 36.13 -79.32 36.13 -78.3 36.13 C-76 36 -76 36 -75 35 C-74.52 34.95 -74.52 34.95 -72.06 34.69 C-55.35 32.47 -40.85 20.04 -30 8 C-28.96 6.36 -27.95 4.69 -27 3 C-20.3 -5.08 -8.62 -4.9 0 0 Z "  transform="translate(1055,1155)"/>
<path d="M0 0 C0.46 0 0.46 0 2.76 0.01 C3.69 0.01 4.62 0 5.57 0 C7.54 0 9.51 0 11.47 0.01 C14.5 0.01 17.52 0.01 20.54 0 C22.45 0 24.35 0 26.26 0.01 C27.17 0 28.08 0 29.02 0 C35.39 0.02 35.39 0.02 36.51 1.14 C38.67 1.35 40.84 1.51 43.01 1.64 C49.4 2.03 49.4 2.03 50.51 3.14 C52 3.35 53.51 3.51 55.01 3.64 C59.4 4.03 59.4 4.03 60.51 5.14 C60.99 5.19 60.99 5.19 63.45 5.45 C79.03 7.62 95.79 18.01 105.51 30.14 C108.73 34.87 109.93 39.45 110.51 45.14 C110.84 45.47 111.17 45.8 111.51 46.14 C111.61 48.14 111.64 50.14 111.63 52.14 C111.64 53.23 111.64 54.33 111.64 55.45 C111.51 58.14 111.51 58.14 110.51 59.14 C110.45 59.65 110.45 59.65 110.15 62.22 C107.31 79.6 92.34 93.24 79.51 104.14 C77.86 105.16 76.19 106.17 74.51 107.14 C74.01 107.63 73.52 108.13 73.01 108.64 C71.06 110.59 68.89 111.75 66.51 113.14 C66.07 113.44 66.07 113.44 63.88 114.95 C60.06 117.51 56.02 119.59 51.95 121.7 C39.44 128.21 39.44 128.21 36.51 131.14 C35.49 139.97 36.44 147.3 40.51 155.14 C41.04 156.2 41.57 157.27 42.12 158.36 C47.06 167.89 52.58 175.35 60.07 182.95 C60.63 183.52 61.18 184.08 61.75 184.66 C64.8 187.69 67.7 190.07 71.51 192.14 C72.42 192.76 73.32 193.38 74.26 194.01 C80.4 198.03 86.35 201.31 93.39 203.45 C95.51 204.14 95.51 204.14 99.01 205.76 C102.69 207.21 105.78 207.65 109.69 207.93 C111.51 208.14 111.51 208.14 112.51 209.14 C114.72 209.24 116.93 209.27 119.13 209.27 C119.46 209.27 119.46 209.27 121.14 209.27 C122.54 209.28 123.94 209.27 125.35 209.27 C127.5 209.26 129.65 209.27 131.81 209.28 C133.17 209.28 134.52 209.27 135.88 209.27 C137.13 209.27 138.37 209.27 139.66 209.27 C142.51 209.14 142.51 209.14 143.51 208.14 C144.02 208.08 144.02 208.08 146.63 207.76 C149.99 207.22 152.43 206.39 155.48 204.96 C158.89 203.58 162.48 202.82 166.06 201.98 C168.7 201.07 169.65 200.15 171.51 198.14 C173.34 197.18 173.34 197.18 175.32 196.33 C179 194.57 181.39 192.49 184.13 189.51 C185.51 188.14 185.51 188.14 188.2 186.58 C191.03 184.81 191.87 183.01 193.51 180.14 C194.31 179.38 195.12 178.61 195.95 177.83 C202.16 171.31 204.54 162.8 205.26 153.99 C205.51 152.14 205.51 152.14 206.51 151.14 C206.61 149.47 206.64 147.81 206.63 146.14 C206.64 145.69 206.64 145.69 206.64 143.39 C206.51 141.14 206.51 141.14 205.51 140.14 C205.41 139.17 205.3 138.2 205.2 137.2 C203.68 125.66 196.78 115.89 188.17 108.39 C183.86 105.15 178.84 103.05 173.95 100.83 C169.7 98.74 168.12 97.55 166.26 93.26 C165.46 89.93 165.54 88.38 166.51 85.14 C166.74 84.15 166.96 83.16 167.2 82.14 C168.86 78.34 170.9 76.09 174.51 74.14 C183.15 71.46 183.15 71.46 186.51 73.14 C187.9 73.29 189.3 73.41 190.7 73.51 C195.1 73.96 198.47 75.27 202.51 77.14 C204.83 77.89 207.15 78.61 209.49 79.3 C211.77 80.25 212.8 81.38 214.51 83.14 C215.25 83.55 215.99 83.97 216.75 84.4 C220.55 86.8 223.49 89.83 226.63 93.01 C227.25 93.63 227.87 94.24 228.51 94.87 C231.72 98.09 234.35 101.09 236.51 105.14 C237.17 106.13 237.83 107.12 238.51 108.14 C239.17 109.13 239.83 110.12 240.51 111.14 C241.02 111.86 241.54 112.58 242.07 113.33 C243.96 117.02 244.86 120.8 245.86 124.81 C246.51 127.14 246.51 127.14 247.51 128.14 C247.83 130.98 248.02 133.82 248.23 136.67 C248.51 139.14 248.51 139.14 249.51 140.14 C249.61 141.76 249.64 143.39 249.64 145.01 C249.64 146 249.64 146.98 249.65 148 C249.64 149.03 249.64 150.07 249.63 151.14 C249.64 152.18 249.64 153.21 249.65 154.28 C249.64 154.77 249.64 154.77 249.64 157.26 C249.64 158.17 249.64 159.08 249.64 160.02 C249.51 162.14 249.51 162.14 248.51 163.14 C248.35 164.51 248.23 165.89 248.13 167.26 C247.69 171.7 246.34 175.05 244.51 179.14 C244.01 180.99 243.53 182.84 243.07 184.7 C241.88 189.22 240.31 192.35 237.51 196.14 C236.66 197.67 235.83 199.22 235.01 200.76 C233.18 204.11 231.31 206.52 228.51 209.14 C228.1 209.87 227.68 210.61 227.26 211.37 C225.1 214.79 222.51 217.43 219.63 220.26 C219.12 220.79 218.6 221.31 218.07 221.85 C215.08 224.82 212.21 227.08 208.51 229.14 C208.01 229.63 207.52 230.13 207.01 230.64 C196.88 240.77 178.2 247.13 164.66 250.53 C162.51 251.14 162.51 251.14 161.51 252.14 C159.18 252.47 156.84 252.81 154.51 253.14 C154.18 253.47 153.85 253.8 153.51 254.14 C149.87 254.41 146.24 254.59 142.59 254.74 C136.61 255.04 136.61 255.04 135.51 256.14 C134.18 256.24 132.84 256.27 131.51 256.27 C130.7 256.27 129.9 256.27 129.07 256.28 C128.23 256.27 127.38 256.27 126.51 256.26 C125.66 256.27 124.82 256.27 123.95 256.28 C123.14 256.27 122.34 256.27 121.51 256.27 C121.14 256.27 121.14 256.27 119.26 256.27 C117.51 256.14 117.51 256.14 116.51 255.14 C114 254.93 111.52 254.76 109.01 254.64 C101.64 254.27 101.64 254.27 100.51 253.14 C99.35 252.97 98.2 252.81 97.01 252.64 C93.51 252.14 93.51 252.14 92.51 251.14 C92.02 251.09 92.02 251.09 89.57 250.83 C84.54 250.17 80.15 248.1 75.51 246.14 C73.82 245.49 72.13 244.85 70.45 244.2 C63.28 241.33 56.87 237.48 50.51 233.14 C49.62 232.62 48.74 232.11 47.82 231.58 C45.68 230.25 44.27 228.9 42.51 227.14 C41.75 226.71 40.99 226.27 40.21 225.83 C37.32 224.02 35.16 222.05 32.75 219.65 C31.88 218.78 31.01 217.91 30.11 217.01 C29.21 216.1 28.31 215.2 27.38 214.26 C26.48 213.37 25.57 212.47 24.64 211.54 C23.77 210.67 22.9 209.8 22 208.9 C21.21 208.1 20.42 207.31 19.61 206.49 C17.51 204.14 17.51 204.14 15.98 201.34 C15.49 200.61 15.01 199.89 14.51 199.14 C10.51 199.14 10.51 199.14 8.45 200.83 C6.51 203.14 6.51 203.14 5.38 205.28 C2.65 209.46 -0.83 212.76 -4.37 216.26 C-5.07 216.98 -5.78 217.69 -6.51 218.43 C-9.97 221.88 -13.14 224.84 -17.49 227.14 C-17.99 227.63 -18.48 228.13 -18.99 228.64 C-21.48 231.13 -24.54 232.61 -27.6 234.3 C-28.37 234.72 -29.14 235.14 -29.93 235.58 C-30.71 236.01 -31.5 236.44 -32.3 236.88 C-34.49 238.14 -34.49 238.14 -37.43 240.2 C-44.07 244.4 -51.4 246.47 -58.96 248.42 C-61.18 249.05 -63.15 249.8 -65.24 250.76 C-68.69 252.23 -71.79 252.69 -75.49 253.14 C-75.82 253.47 -76.15 253.8 -76.49 254.14 C-79.85 254.46 -83.21 254.65 -86.58 254.86 C-89.49 255.14 -89.49 255.14 -90.49 256.14 C-92.55 256.24 -94.62 256.27 -96.68 256.27 C-97.93 256.27 -99.19 256.27 -100.48 256.28 C-101.14 256.27 -101.8 256.27 -102.47 256.27 C-104.48 256.26 -106.49 256.27 -108.5 256.28 C-109.13 256.28 -109.13 256.28 -112.3 256.27 C-113.47 256.27 -114.63 256.27 -115.82 256.27 C-118.49 256.14 -118.49 256.14 -119.49 255.14 C-121.65 254.93 -123.82 254.77 -125.99 254.64 C-132.38 254.25 -132.38 254.25 -133.49 253.14 C-134.52 253.02 -135.55 252.89 -136.62 252.76 C-139.99 252.22 -142.45 251.37 -145.51 249.94 C-147.77 249.03 -149.99 248.54 -152.37 248.01 C-162.82 245.28 -173.55 239.32 -181.85 232.43 C-183.49 231.14 -183.49 231.14 -185.82 229.81 C-188.52 228.12 -190.56 226.33 -192.81 224.08 C-193.59 223.3 -194.38 222.52 -195.18 221.72 C-195.99 220.91 -196.79 220.1 -197.62 219.26 C-198.43 218.46 -199.24 217.66 -200.07 216.83 C-200.85 216.05 -201.63 215.27 -202.44 214.46 C-203.14 213.75 -203.85 213.04 -204.58 212.31 C-206.57 210.05 -208.01 207.76 -209.49 205.14 C-210.11 204.23 -210.73 203.32 -211.37 202.39 C-215.46 196.13 -218.77 190.08 -220.91 182.89 C-221.49 181.14 -221.49 181.14 -222.49 180.14 C-222.82 177.81 -223.16 175.47 -223.49 173.14 C-223.82 172.81 -224.15 172.48 -224.49 172.14 C-224.82 168.78 -225 165.42 -225.21 162.05 C-225.49 159.14 -225.49 159.14 -226.49 158.14 C-226.59 156.14 -226.62 154.14 -226.62 152.14 C-226.62 151.05 -226.62 149.95 -226.62 148.83 C-226.49 146.14 -226.49 146.14 -225.49 145.14 C-225.33 143.1 -225.21 141.06 -225.12 139.01 C-224.75 133.73 -223.88 129.91 -221.49 125.14 C-221.06 123.77 -220.64 122.39 -220.24 121.01 C-214.19 103.34 -200.67 87.32 -183.74 79.01 C-179.07 76.79 -174.63 75.77 -169.49 75.14 C-169.16 74.81 -168.83 74.48 -168.49 74.14 C-165.58 73.96 -162.72 73.86 -159.8 73.83 C-159.4 73.81 -159.4 73.81 -157.37 73.74 C-151.93 73.68 -148.74 74.41 -144.49 78.14 C-141.18 82.75 -141.95 88.74 -142.49 94.14 C-144.79 100.35 -149.77 101.99 -155.45 104.64 C-163.34 108.54 -170.25 114.36 -174.49 122.14 C-174.89 122.83 -175.3 123.53 -175.71 124.24 C-180.54 132.65 -181.85 139.23 -181.87 148.89 C-181.88 149.41 -181.88 149.41 -181.94 152.02 C-181.98 161.83 -179.25 169.22 -173.49 177.14 C-172.95 178.05 -172.42 178.95 -171.87 179.89 C-167.52 186.42 -161.36 192.38 -154.49 196.14 C-153.87 196.48 -153.24 196.83 -152.6 197.18 C-150.43 198.37 -148.24 199.54 -146.05 200.7 C-145.32 201.1 -144.58 201.5 -143.82 201.91 C-137.43 205.31 -131.69 207.15 -124.49 208.14 C-124.16 208.47 -123.83 208.8 -123.49 209.14 C-120.72 209.38 -117.96 209.56 -115.18 209.7 C-114.41 209.74 -113.63 209.79 -112.84 209.83 C-106.46 210.18 -100.18 210.06 -93.8 209.7 C-93.02 209.66 -92.23 209.62 -91.43 209.58 C-85.61 209.26 -85.61 209.26 -84.49 208.14 C-83.98 208.08 -83.98 208.08 -81.37 207.76 C-77.29 207.11 -74.25 205.82 -70.49 204.14 C-69.04 203.67 -67.58 203.21 -66.12 202.76 C-58.72 200.34 -52.49 196.37 -46.41 191.57 C-44.49 190.14 -44.49 190.14 -42.26 188.95 C-38.12 186.24 -34.84 182.77 -31.37 179.26 C-31.01 178.91 -31.01 178.91 -29.2 177.12 C-25.76 173.66 -22.74 170.51 -20.49 166.14 C-19.75 164.82 -19.01 163.5 -18.26 162.18 C-17.46 160.71 -16.66 159.24 -15.87 157.76 C-15.46 157.03 -15.05 156.3 -14.63 155.55 C-12.16 150.97 -10.99 147.31 -10.49 142.14 C-10.16 141.81 -9.83 141.48 -9.49 141.14 C-9.18 138.99 -9.18 138.99 -9.05 136.33 C-8.99 135.45 -8.93 134.58 -8.87 133.68 C-9.49 131.14 -9.49 131.14 -11.91 129.1 C-16.98 126.13 -22.42 123.82 -27.77 121.41 C-28.18 121.22 -28.18 121.22 -30.25 120.26 C-31 119.92 -31.74 119.59 -32.5 119.24 C-34.56 118.1 -35.88 116.84 -37.49 115.14 C-39.14 114.11 -40.81 113.12 -42.49 112.14 C-45.83 110 -48.7 107.93 -51.49 105.14 C-52.25 104.71 -53 104.27 -53.78 103.83 C-56.67 102.03 -58.84 100.05 -61.25 97.65 C-62.12 96.78 -62.99 95.91 -63.89 95.01 C-64.79 94.1 -65.69 93.2 -66.62 92.26 C-67.52 91.37 -68.43 90.47 -69.36 89.54 C-70.23 88.67 -71.1 87.8 -72 86.9 C-72.79 86.1 -73.58 85.31 -74.39 84.49 C-76.47 82.16 -77.98 79.86 -79.49 77.14 C-79.71 76.77 -79.71 76.77 -80.81 74.89 C-81.22 74.17 -81.63 73.45 -82.05 72.7 C-82.47 71.98 -82.88 71.26 -83.31 70.52 C-87.77 61.56 -87.94 50.62 -85.77 40.92 C-83.91 35.91 -81.49 32.73 -77.49 29.14 C-77.24 28.71 -77.24 28.71 -75.99 26.51 C-74.2 23.67 -72.41 22.74 -69.49 21.14 C-69.01 20.66 -68.54 20.17 -68.05 19.67 C-65.47 17.13 -62.2 15.73 -58.99 14.14 C-58.28 13.78 -57.57 13.43 -56.84 13.06 C-51.82 10.62 -46.89 8.84 -41.43 7.61 C-39.49 7.14 -39.49 7.14 -38.49 6.14 C-36.16 5.81 -33.82 5.47 -31.49 5.14 C-31.16 4.81 -30.83 4.48 -30.49 4.14 C-29.32 3.97 -29.32 3.97 -23.49 3.14 C-23.16 2.81 -22.83 2.48 -22.49 2.14 C-19.28 1.87 -16.08 1.69 -12.86 1.53 C-8.21 1.27 -4.75 0.02 0 0 Z "  transform="translate(1244.4912109375,1151.8610534667969)"/>
<path d="M0 0 C1.19 -0.03 2.39 -0.06 3.62 -0.09 C11.95 1.01 17.11 8.19 22.69 13.94 C24.35 15.65 26.02 17.36 27.69 19.07 C28.42 19.82 29.15 20.58 29.91 21.35 C32.19 23.43 34.44 24.88 37.12 26.38 C37.64 26.66 37.64 26.66 40.25 28.13 C41.34 28.73 42.43 29.32 43.56 29.94 C44.65 30.54 45.75 31.14 46.87 31.75 C52.26 34.44 57.19 35.56 63.12 36.38 C63.45 36.7 63.79 37.04 64.12 37.38 C65.75 37.47 67.37 37.51 69 37.51 C69.98 37.51 70.97 37.51 71.98 37.51 C72.5 37.51 72.5 37.51 75.12 37.5 C76.16 37.5 77.2 37.51 78.27 37.51 C79.25 37.51 80.24 37.51 81.25 37.51 C81.71 37.51 81.71 37.51 84.01 37.5 C86.12 37.38 86.12 37.38 87.12 36.38 C87.61 36.32 87.61 36.32 90.06 36.06 C105.4 34.02 118.56 23.34 128.83 12.55 C133.64 8 137.87 7.85 144.4 7.8 C149.93 7.97 152.83 9.45 156.61 13.36 C161.81 20.29 161.85 25.83 161.12 34.38 C160.03 39.12 157.64 42.08 154.12 45.38 C153.67 46.16 153.22 46.94 152.75 47.75 C149.53 52.95 145.41 56.37 140.12 59.38 C139.63 59.87 139.13 60.37 138.62 60.88 C130.92 68.58 116.47 74.67 106.03 76.94 C104.12 77.38 104.12 77.38 103.12 78.38 C100.81 78.7 98.49 78.89 96.16 79.09 C94.12 79.38 94.12 79.38 93.12 80.38 C90.62 80.48 88.13 80.51 85.62 80.51 C84.87 80.51 84.12 80.51 83.35 80.51 C81.76 80.51 80.17 80.51 78.58 80.51 C76.14 80.5 73.69 80.51 71.25 80.51 C69.71 80.51 68.17 80.51 66.62 80.51 C65.89 80.51 65.15 80.51 64.4 80.51 C59.24 80.49 59.24 80.49 58.12 79.38 C56.48 79.24 54.83 79.14 53.19 79.06 C47.22 78.57 42.55 76.79 37.12 74.38 C35.52 73.77 33.92 73.16 32.31 72.56 C20.97 68.01 10.77 62.02 2.12 53.38 C1.73 53.17 1.73 53.17 -0.25 52.12 C-3.48 49.97 -5.23 47.44 -7.46 44.3 C-8.88 42.38 -8.88 42.38 -11.06 40.19 C-13.15 38.1 -14.43 35.95 -15.88 33.38 C-16.39 32.66 -16.91 31.95 -17.44 31.21 C-19.27 27.6 -19.35 24.4 -19.31 20.44 C-19.33 19.75 -19.35 19.06 -19.37 18.35 C-19.37 12.05 -16.92 8.67 -12.88 4.12 C-8.75 0.51 -5.47 0.06 0 0 Z "  transform="translate(1470.875,1151.625)"/>
<path d="M0 0 C1.04 -0 2.08 -0.01 3.14 -0.01 C3.71 -0.01 3.71 -0.01 6.57 -0 C7.14 -0 7.14 -0 10.05 -0.01 C12.49 -0.01 14.93 -0.01 17.37 -0 C21.11 0 24.86 -0 28.61 -0.01 C30.97 -0.01 33.33 -0.01 35.69 -0 C36.82 -0.01 37.95 -0.01 39.11 -0.01 C39.63 -0.01 39.63 -0.01 42.26 0 C43.18 0 44.09 0 45.04 0 C47.13 0.13 47.13 0.13 48.13 1.13 C49.96 1.34 51.79 1.5 53.63 1.63 C59.02 2.02 59.02 2.02 60.13 3.13 C61.28 3.29 62.44 3.46 63.63 3.63 C67.13 4.13 67.13 4.13 68.13 5.13 C69.28 5.29 70.44 5.46 71.63 5.63 C75.13 6.13 75.13 6.13 76.13 7.13 C77.2 7.25 78.27 7.38 79.38 7.5 C83.16 8.13 84.96 9.1 88.13 11.13 C89.12 11.42 90.11 11.71 91.13 12 C95.82 13.76 98.34 16.43 100.44 20.94 C101.61 26.37 102.03 30.32 99.5 35.38 C96.04 39.38 93.58 41.9 88.11 42.41 C85.09 42.44 82.14 42.41 79.13 42.13 C78.8 41.8 78.47 41.47 78.13 41.13 C76.97 40.96 75.82 40.8 74.63 40.63 C71.13 40.13 71.13 40.13 70.13 39.13 C68.97 38.96 67.82 38.8 66.63 38.63 C63.13 38.13 63.13 38.13 62.13 37.13 C60.63 36.92 59.13 36.76 57.63 36.63 C53.24 36.24 53.24 36.24 52.13 35.13 C49.97 34.92 47.8 34.76 45.63 34.63 C39.24 34.24 39.24 34.24 38.13 33.13 C36.32 33.03 34.51 33 32.71 33 C31.55 33 30.39 32.99 29.2 32.99 C27.94 32.99 26.68 32.99 25.38 33 C24.74 33 24.74 33 21.49 32.99 C18.77 32.99 16.05 32.99 13.33 33 C9.83 33 6.34 33 2.85 33 C-0.48 32.99 -3.8 32.99 -7.12 33 C-7.75 33 -7.75 33 -10.94 32.99 C-12.1 32.99 -13.26 33 -14.45 33 C-14.96 33 -14.96 33 -17.56 33 C-19.87 33.13 -19.87 33.13 -20.87 34.13 C-26.39 34.65 -31.29 34.86 -36.37 32.5 C-40.28 28.79 -43.06 25.64 -43.37 20.13 C-43.13 15.89 -41.67 13.37 -38.87 10.13 C-32.9 5.45 -27.26 4.14 -19.87 3.13 C-19.54 2.8 -19.21 2.47 -18.87 2.13 C-15.51 1.8 -12.15 1.62 -8.78 1.41 C-5.39 1.08 -3.64 0 0 0 Z "  transform="translate(1646.87109375,1259.87060546875)"/>
<path d="M0 0 C0.54 -0 0.54 -0 3.27 -0.01 C4.44 -0.01 5.61 -0.01 6.82 -0 C8.02 -0 9.21 -0.01 10.44 -0.01 C12.97 -0.01 15.51 -0.01 18.04 -0 C21.93 0 25.82 -0 29.71 -0.01 C32.16 -0.01 34.62 -0.01 37.07 -0 C38.24 -0.01 39.42 -0.01 40.62 -0.01 C41.7 -0.01 42.78 -0 43.89 0 C44.84 0 45.8 0 46.78 0 C48.95 0.13 48.95 0.13 49.95 1.13 C51.77 1.34 53.61 1.5 55.45 1.63 C60.83 2.02 60.83 2.02 61.95 3.13 C63.1 3.29 64.26 3.46 65.45 3.63 C68.95 4.13 68.95 4.13 69.95 5.13 C71 5.23 72.05 5.34 73.13 5.44 C77.39 6.21 79.61 7.42 82.95 10.13 C86.04 14.95 85.8 20.62 84.95 26.13 C82.63 30.07 79.13 32.42 74.95 34.13 C72.4 34.36 72.4 34.36 69.76 34.32 C68.88 34.31 68 34.3 67.09 34.3 C64.95 34.13 64.95 34.13 63.95 33.13 C62.02 33.03 60.09 33 58.16 33 C56.92 33 55.68 32.99 54.4 32.99 C53.04 32.99 51.68 32.99 50.32 33 C48.93 33 47.55 32.99 46.16 32.99 C43.25 32.99 40.34 32.99 37.44 33 C33.7 33 29.96 33 26.23 33 C23.36 32.99 20.5 32.99 17.64 33 C16.26 33 14.88 33 13.5 32.99 C11.58 32.99 9.66 33 7.73 33 C6.64 33 5.54 33 4.41 33 C1.95 33.13 1.95 33.13 0.95 34.13 C-2.42 34.45 -5.78 34.64 -9.15 34.85 C-12.05 35.13 -12.05 35.13 -13.05 36.13 C-15.37 36.45 -17.69 36.64 -20.02 36.85 C-22.05 37.13 -22.05 37.13 -23.05 38.13 C-25.39 38.46 -27.72 38.8 -30.05 39.13 C-30.38 39.46 -30.71 39.79 -31.05 40.13 C-33.39 40.46 -35.72 40.8 -38.05 41.13 C-38.38 41.46 -38.71 41.79 -39.05 42.13 C-43.97 42.69 -47.94 42.67 -52.43 40.5 C-56.01 37.26 -58.65 34.66 -59.44 29.73 C-59.7 24 -58.89 20.6 -55.05 16.13 C-54.52 15.43 -53.98 14.73 -53.43 14 C-49.72 11.08 -45.47 9.71 -41.05 8.13 C-40 7.74 -38.95 7.35 -37.87 6.94 C-34.62 6 -31.4 5.59 -28.05 5.13 C-27.72 4.8 -27.39 4.47 -27.05 4.13 C-24.74 3.81 -22.42 3.62 -20.09 3.41 C-18.05 3.13 -18.05 3.13 -17.05 2.13 C-14.21 1.81 -11.37 1.62 -8.52 1.41 C-5.28 1.04 -3.58 0 0 0 Z "  transform="translate(821.0546875,1261.87060546875)"/>
<path d="M0 0 C7.43 0.04 10.15 1.15 15.31 6.31 C17 10.44 17.93 13.87 17.31 18.31 C14.74 23.59 12.29 27.11 6.69 29.38 C3.15 30.36 -0.18 30.77 -3.83 31.07 C-5.69 31.31 -5.69 31.31 -6.69 32.31 C-9.02 32.65 -11.35 32.98 -13.69 33.31 C-14.02 33.64 -14.35 33.97 -14.69 34.31 C-15.72 34.44 -16.75 34.56 -17.81 34.69 C-21.17 35.23 -23.62 36.07 -26.66 37.49 C-29.17 38.51 -31.7 39.15 -34.31 39.81 C-38.28 40.85 -41.21 42.12 -44.69 44.31 C-46.06 44.78 -47.43 45.22 -48.82 45.64 C-53.51 47.17 -57.69 49.24 -62 51.62 C-63.48 52.43 -64.95 53.23 -66.43 54.02 C-67.15 54.41 -67.87 54.8 -68.6 55.2 C-72.51 57.28 -76.48 59.2 -80.46 61.12 C-82.69 62.31 -82.69 62.31 -84.69 64.31 C-90.77 66.92 -96.09 66.97 -102.38 65.38 C-106.91 62.55 -108.78 59.24 -110.69 54.31 C-111.49 49.29 -110.04 45.77 -107.69 41.31 C-104.68 37.83 -101.71 35.51 -97.69 33.31 C-96.21 32.5 -94.73 31.69 -93.25 30.88 C-92.46 30.44 -91.68 30.01 -90.87 29.56 C-88.69 28.31 -88.69 28.31 -85.88 26.38 C-78.95 21.9 -71.57 18.37 -63.69 15.96 C-61.69 15.31 -61.69 15.31 -58.31 13.81 C-54.37 12.18 -50.45 11.14 -46.33 10.07 C-44.07 9.42 -42.06 8.67 -39.94 7.69 C-36.48 6.23 -33.39 5.76 -29.69 5.31 C-29.36 4.98 -29.03 4.65 -28.69 4.31 C-26.37 3.99 -24.05 3.8 -21.72 3.59 C-19.69 3.31 -19.69 3.31 -18.69 2.31 C-15.85 1.99 -13.01 1.8 -10.16 1.59 C-6.55 1.18 -4.03 0.08 0 0 Z "  transform="translate(890.6875,1323.6875)"/>
<path d="M0 0 C0.58 0 0.58 0 3.5 0.01 C4.1 0.01 4.1 0.01 7.14 0.04 C8.36 0.04 9.57 0.04 10.82 0.04 C19.82 0.09 19.82 0.09 20.96 1.23 C22.45 1.44 23.95 1.6 25.46 1.73 C29.85 2.12 29.85 2.12 30.96 3.23 C31.99 3.35 33.02 3.48 34.08 3.61 C37.44 4.15 39.9 5 42.95 6.41 C45.35 7.39 47.76 8.02 50.27 8.67 C54.85 9.87 59.15 11.39 63.52 13.21 C65.07 13.86 66.63 14.48 68.21 15.06 C79.13 19.12 90.39 24.66 99.46 32.03 C100.96 33.23 100.96 33.23 103.71 34.86 C107.63 37.26 110.18 39.99 111.96 44.23 C112.66 49.17 112.51 53.12 110.27 57.61 C107.2 61.09 104.72 63.84 100.08 64.87 C89.57 65.04 82.58 61.08 74.07 55.25 C70.53 52.96 66.91 51.04 63.14 49.17 C62.44 48.82 61.73 48.46 61 48.1 C56.69 45.99 52.43 44.17 47.82 42.8 C45.96 42.23 45.96 42.23 42.58 40.73 C38.64 39.1 34.72 38.06 30.6 36.99 C28.34 36.34 26.33 35.59 24.21 34.61 C20.75 33.14 17.66 32.68 13.96 32.23 C13.63 31.9 13.3 31.57 12.96 31.23 C11.46 31.02 9.96 30.86 8.46 30.73 C4.07 30.34 4.07 30.34 2.96 29.23 C1.91 29.13 0.85 29.02 -0.23 28.92 C-5.73 27.93 -8.7 25.71 -12.42 21.61 C-14.62 17.03 -14.85 13.22 -14.04 8.23 C-10.67 1.49 -7.31 -0.03 0 0 Z "  transform="translate(1616.04296875,1323.76953125)"/></g><g class="thread" fill="var(--thread, #ff385c)"></g></svg>